<svg width="123" height="117" viewBox="0 0 123 117" fill="none" xmlns="http://www.w3.org/2000/svg">
<!-- Kein Vollflächen-Rechteck: sonst schwarzer Kasten in LVGL-Raster -->
<path fill-rule="evenodd" clip-rule="evenodd" d="M78.661 102.318C77.251 110.155 70.399 116.099 62.158 116.099C53.918 116.099 47.064 110.155 45.654 102.318H78.661ZM70.051 6.93305C79.61 8.86105 87.957 14.2261 93.744 21.6681L22.162 63.1471C22.38 57.7911 22.221 52.1331 22.221 46.1141C22.221 26.7201 36.224 10.4381 54.621 6.87605C55.68 -2.32395 69.057 -2.27895 70.051 6.93305ZM114.135 15.8971L120.99 27.7301L6.855 93.8661L0 82.0331L114.135 15.8971ZM102.125 44.7061C102.142 45.1741 102.152 45.6451 102.152 46.1141C102.152 68.8601 99.994 85.9641 122.88 101.196H4.64L102.125 44.7061Z" fill="white"/>
</svg>
