<svg width="82" height="82" viewBox="0 0 82 82" fill="none" xmlns="http://www.w3.org/2000/svg">
<path d="M0 2C0 0.895429 0.89543 0 2 0H80C81.1046 0 82 0.89543 82 2V80C82 81.1046 81.1046 82 80 82H2C0.895429 82 0 81.1046 0 80V2Z" fill="#444444"/>
<path d="M2 0V1H80V0V-1H2V0ZM82 2H81V80H82H83V2H82ZM80 82V81H2V82V83H80V82ZM0 80H1V2H0H-1V80H0ZM2 82V81C1.44771 81 1 80.5523 1 80H0H-1C-1 81.6569 0.343143 83 2 83V82ZM82 80H81C81 80.5523 80.5523 81 80 81V82V83C81.6569 83 83 81.6569 83 80H82ZM80 0V1C80.5523 1 81 1.44771 81 2H82H83C83 0.343147 81.6569 -1 80 -1V0ZM2 0V-1C0.343147 -1 -1 0.343143 -1 2H0H1C1 1.44771 1.44771 1 2 1V0Z" fill="white" fill-opacity="0.1"/>
<rect width="82" height="82" fill="#D9D9D9"/>
<circle cx="41" cy="41" r="16" fill="#865353"/>
<ellipse cx="41" cy="15" rx="3" ry="8" fill="#865353"/>
<ellipse cx="41" cy="67" rx="3" ry="8" fill="#865353"/>
<ellipse cx="68" cy="41" rx="3" ry="8" transform="rotate(-90 68 41)" fill="#865353"/>
<ellipse cx="14" cy="41" rx="3" ry="8" transform="rotate(-90 14 41)" fill="#865353"/>
<ellipse cx="59.7782" cy="21.7782" rx="3" ry="8" transform="rotate(45 59.7782 21.7782)" fill="#865353"/>
<ellipse cx="21.7782" cy="59.7782" rx="3" ry="8" transform="rotate(45 21.7782 59.7782)" fill="#865353"/>
<ellipse cx="21.7782" cy="21.7782" rx="3" ry="8" transform="rotate(-45 21.7782 21.7782)" fill="#865353"/>
<ellipse cx="60.7782" cy="59.7782" rx="3" ry="8" transform="rotate(-45 60.7782 59.7782)" fill="#865353"/>
</svg>
