<svg width="168" height="186" viewBox="0 0 168 186" fill="none" xmlns="http://www.w3.org/2000/svg">
<!-- kein #1E1E1E-Vollflächen-Hintergrund (sonst schwarzer Rand beim Raster) -->
<path d="M0 2C0 0.895429 0.895431 0 2 0H166C167.105 0 168 0.895431 168 2V184C168 185.105 167.105 186 166 186H2C0.895433 186 0 185.105 0 184V2Z" fill="#444444"/>
<path d="M2 0V1H166V0V-1H2V0ZM168 2H167V184H168H169V2H168ZM166 186V185H2V186V187H166V186ZM0 184H1V2H0H-1V184H0ZM2 186V185C1.44772 185 1 184.552 1 184H0H-1C-1 185.657 0.34315 187 2 187V186ZM168 184H167C167 184.552 166.552 185 166 185V186V187C167.657 187 169 185.657 169 184H168ZM166 0V1C166.552 1 167 1.44772 167 2H168H169C169 0.343144 167.657 -1 166 -1V0ZM2 0V-1C0.343147 -1 -1 0.343143 -1 2H0H1C1 1.44771 1.44771 1 2 1V0Z" fill="white" fill-opacity="0.1"/>
<rect width="168" height="186" fill="#765858"/>
<path d="M34 3L66.0429 50.25H1.95706L34 3Z" fill="#D9D9D9"/>
<path d="M34 180L1.95706 132.75H66.0429L34 180Z" fill="#D9D9D9"/>
<path d="M134 180L101.957 132.75H166.043L134 180Z" fill="#D9D9D9"/>
<path d="M133 3L165.043 50.25H100.957L133 3Z" fill="#D9D9D9"/>
</svg>
