<svg width="82" height="82" viewBox="0 0 82 82" fill="none" xmlns="http://www.w3.org/2000/svg">
<rect width="82" height="82" fill="#1E1E1E"/>
<path d="M0 2C0 0.895429 0.89543 0 2 0H80C81.1046 0 82 0.89543 82 2V80C82 81.1046 81.1046 82 80 82H2C0.895429 82 0 81.1046 0 80V2Z" fill="#444444"/>
<path d="M2 0V1H80V0V-1H2V0ZM82 2H81V80H82H83V2H82ZM80 82V81H2V82V83H80V82ZM0 80H1V2H0H-1V80H0ZM2 82V81C1.44771 81 1 80.5523 1 80H0H-1C-1 81.6569 0.343143 83 2 83V82ZM82 80H81C81 80.5523 80.5523 81 80 81V82V83C81.6569 83 83 81.6569 83 80H82ZM80 0V1C80.5523 1 81 1.44771 81 2H82H83C83 0.343147 81.6569 -1 80 -1V0ZM2 0V-1C0.343147 -1 -1 0.343143 -1 2H0H1C1 1.44771 1.44771 1 2 1V0Z" fill="white" fill-opacity="0.1"/>
<rect width="82" height="82" fill="#D9D9D9"/>
<line x1="41" y1="35" x2="41" y2="19" stroke="#865353" stroke-width="4"/>
<rect x="13.5" y="28.5" width="54" height="37" rx="1.5" fill="#D9D9D9" stroke="#765858" stroke-width="3" stroke-linejoin="round"/>
<circle cx="38.5" cy="14.5" r="6" fill="#D9D9D9" stroke="#765858" stroke-width="3"/>
<rect x="24" y="37" width="9" height="10" stroke="#765858" stroke-width="2"/>
<rect x="48" y="37" width="9" height="6" stroke="#765858" stroke-width="2"/>
<rect x="37" y="54" width="17" height="5" stroke="#765858" stroke-width="2"/>
</svg>
