<svg width="72" height="71" viewBox="0 0 72 71" fill="none" xmlns="http://www.w3.org/2000/svg">
<rect width="72" height="71" fill="#1E1E1E"/>
<path d="M0 5.5C0 4.39543 0.895431 3.5 2 3.5H70C71.1046 3.5 72 4.39543 72 5.5V64.5C72 65.6046 71.1046 66.5 70 66.5H2C0.895431 66.5 0 65.6046 0 64.5V5.5Z" fill="#444444"/>
<path d="M2 3.5V4.5H70V3.5V2.5H2V3.5ZM72 5.5H71V64.5H72H73V5.5H72ZM70 66.5V65.5H2V66.5V67.5H70V66.5ZM0 64.5H1V5.5H0H-1V64.5H0ZM2 66.5V65.5C1.44772 65.5 1 65.0523 1 64.5H0H-1C-1 66.1569 0.343147 67.5 2 67.5V66.5ZM72 64.5H71C71 65.0523 70.5523 65.5 70 65.5V66.5V67.5C71.6569 67.5 73 66.1569 73 64.5H72ZM70 3.5V4.5C70.5523 4.5 71 4.94772 71 5.5H72H73C73 3.84315 71.6569 2.5 70 2.5V3.5ZM2 3.5V2.5C0.343146 2.5 -1 3.84315 -1 5.5H0H1C1 4.94772 1.44772 4.5 2 4.5V3.5Z" fill="white" fill-opacity="0.1"/>
<rect width="72" height="71" fill="#765858"/>
<path d="M18.5 59.8262L5.5 55.9004V34.4414L18.5 30.1895V59.8262Z" fill="#D9D9D9" stroke="#D9D9D9"/>
<path d="M56.5 59.8262L69.5 55.9004V34.4414L56.5 30.1895V59.8262Z" fill="#D9D9D9" stroke="#D9D9D9"/>
<path d="M16.5053 32.5C16.5053 32.5 10.6522 9 37.5 9C64.3478 9 58.246 34.0795 58.246 34.0795" stroke="#D9D9D9" stroke-width="5"/>
</svg>
