<svg width="72" height="71" viewBox="0 0 72 71" fill="none" xmlns="http://www.w3.org/2000/svg">
<rect width="72" height="71" fill="#1E1E1E"/>
<rect width="72" height="71" fill="#765858"/>
<path d="M21.5 41C21.5 41 25.5 52.5 35.5 52.5C45.5 52.5 49.5 41 49.5 41" stroke="#D9D9D9" stroke-width="3"/>
<ellipse cx="35.5" cy="28.5" rx="12.5" ry="20.5" fill="#D9D9D9"/>
<ellipse cx="23" cy="24" rx="3" ry="7" transform="rotate(-90 23 24)" fill="#765858"/>
<ellipse cx="48" cy="33" rx="3" ry="7" transform="rotate(-90 48 33)" fill="#765858"/>
<ellipse cx="48" cy="24" rx="3" ry="7" transform="rotate(-90 48 24)" fill="#765858"/>
<ellipse cx="23" cy="33" rx="3" ry="7" transform="rotate(-90 23 33)" fill="#765858"/>
<line x1="35" y1="64" x2="35" y2="51" stroke="#D9D9D9" stroke-width="4"/>
<line x1="28" y1="64.5" x2="43" y2="64.5" stroke="#D9D9D9" stroke-width="3"/>
</svg>
