<svg width="82" height="82" viewBox="0 0 82 82" fill="none" xmlns="http://www.w3.org/2000/svg">
<rect width="82" height="82" fill="#1E1E1E"/>
<path d="M0 2C0 0.895429 0.89543 0 2 0H80C81.1046 0 82 0.89543 82 2V80C82 81.1046 81.1046 82 80 82H2C0.895429 82 0 81.1046 0 80V2Z" fill="#444444"/>
<path d="M2 0V1H80V0V-1H2V0ZM82 2H81V80H82H83V2H82ZM80 82V81H2V82V83H80V82ZM0 80H1V2H0H-1V80H0ZM2 82V81C1.44771 81 1 80.5523 1 80H0H-1C-1 81.6569 0.343143 83 2 83V82ZM82 80H81C81 80.5523 80.5523 81 80 81V82V83C81.6569 83 83 81.6569 83 80H82ZM80 0V1C80.5523 1 81 1.44771 81 2H82H83C83 0.343147 81.6569 -1 80 -1V0ZM2 0V-1C0.343147 -1 -1 0.343143 -1 2H0H1C1 1.44771 1.44771 1 2 1V0Z" fill="white" fill-opacity="0.1"/>
<rect width="82" height="82" fill="#D9D9D9"/>
<path d="M32.147 27.8033C32.9629 27.9473 33.7409 27.4026 33.8849 26.5868C34.0288 25.771 33.4842 24.9929 32.6684 24.849L32.4077 26.3262L32.147 27.8033ZM42.4081 65.3262L42.4475 63.8267V63.8267L42.4081 65.3262ZM42.4081 24.8262L57.2232 33.7991L57.5865 16.4824L42.4081 24.8262ZM32.4077 26.3262L32.6684 24.849C31.0177 24.5577 29.3337 25.2812 27.8895 26.3041C26.3992 27.3595 24.9093 28.9101 23.5526 30.7484C20.8405 34.4231 18.4954 39.4733 17.7364 44.6514C16.9757 49.8406 17.7936 55.3291 21.6655 59.5867C25.5226 63.8279 32.149 66.5567 42.3686 66.8257L42.4081 65.3262L42.4475 63.8267C32.6671 63.5693 26.981 60.9726 23.885 57.5682C20.8038 54.1802 20.0279 49.7033 20.7047 45.0866C21.383 40.4588 23.5067 35.8626 25.9664 32.5299C27.1955 30.8645 28.4672 29.5711 29.6234 28.7522C30.8256 27.9008 31.6727 27.7196 32.147 27.8033L32.4077 26.3262ZM42.4081 65.3262L42.3686 66.8257C50.4761 67.039 56.5073 65.0951 60.697 61.7457C64.8917 58.3924 67.0855 53.7532 67.739 48.8821C68.3902 44.0279 67.5212 38.9097 65.5699 34.4567C63.6215 30.0105 60.5445 26.1177 56.6686 23.8191L55.9034 25.1093L55.1383 26.3995C58.3556 28.3075 61.0639 31.6484 62.8221 35.6608C64.5773 39.6664 65.336 44.2316 64.7656 48.4832C64.1975 52.718 62.3203 56.6072 58.8237 59.4025C55.3222 62.2017 50.0421 64.0266 42.4475 63.8267L42.4081 65.3262Z" fill="#765858"/>
</svg>
