<svg width="240" height="536" viewBox="0 0 240 536" fill="none" xmlns="http://www.w3.org/2000/svg">
<rect width="240" height="536" fill="#1E1E1E"/>
<path d="M0 2.00001C0 0.895445 0.895431 0 2 0H238C239.105 0 240 0.89543 240 2V534C240 535.105 239.105 536 238 536H2C0.895429 536 0 535.105 0 534V2.00001Z" fill="#444444"/>
<path d="M2 0V1H238V0V-1H2V0ZM240 2H239V534H240H241V2H240ZM238 536V535H2V536V537H238V536ZM0 534H1V2.00001H0H-1V534H0ZM2 536V535C1.44771 535 1 534.552 1 534H0H-1C-1 535.657 0.343143 537 2 537V536ZM240 534H239C239 534.552 238.552 535 238 535V536V537C239.657 537 241 535.657 241 534H240ZM238 0V1C238.552 1 239 1.44771 239 2H240H241C241 0.343147 239.657 -1 238 -1V0ZM2 0V-1C0.343137 -1 -1 0.343169 -1 2.00001H0H1C1 1.44772 1.44772 1 2 1V0Z" fill="white" fill-opacity="0.1"/>
<rect width="240" height="536" fill="#765858"/>
<circle cx="99.5" cy="522.5" r="3.5" fill="#D9D9D9"/>
<circle cx="115" cy="522" r="6" fill="#D9D9D9"/>
<circle cx="130.5" cy="521.5" r="3.5" fill="#D9D9D9"/>
<circle cx="143.5" cy="521.5" r="3.5" fill="#D9D9D9"/>
<g clip-path="url(#clip0_10_47)">
<path fill-rule="evenodd" clip-rule="evenodd" d="M137.661 395.318C136.251 403.155 129.399 409.099 121.158 409.099C112.918 409.099 106.064 403.155 104.654 395.318H137.661ZM129.051 299.933C138.61 301.861 146.957 307.226 152.744 314.668L81.162 356.147C81.38 350.791 81.221 345.133 81.221 339.114C81.221 319.72 95.224 303.438 113.621 299.876C114.68 290.676 128.057 290.721 129.051 299.933ZM173.135 308.897L179.99 320.73L65.855 386.866L59 375.033L173.135 308.897ZM161.125 337.706C161.142 338.174 161.152 338.645 161.152 339.114C161.152 361.86 158.994 378.964 181.88 394.196H63.64L161.125 337.706Z" fill="white"/>
</g>
<defs>
<clipPath id="clip0_10_47">
<rect width="122.88" height="116.1" fill="white" transform="translate(59 293)"/>
</clipPath>
</defs>
</svg>
