<svg width="240" height="536" viewBox="0 0 240 536" fill="none" xmlns="http://www.w3.org/2000/svg">
<rect width="240" height="536" fill="#1E1E1E"/>
<path d="M0 2.00001C0 0.895445 0.895431 0 2 0H238C239.105 0 240 0.89543 240 2V534C240 535.105 239.105 536 238 536H2C0.895429 536 0 535.105 0 534V2.00001Z" fill="#444444"/>
<path d="M2 0V1H238V0V-1H2V0ZM240 2H239V534H240H241V2H240ZM238 536V535H2V536V537H238V536ZM0 534H1V2.00001H0H-1V534H0ZM2 536V535C1.44771 535 1 534.552 1 534H0H-1C-1 535.657 0.343143 537 2 537V536ZM240 534H239C239 534.552 238.552 535 238 535V536V537C239.657 537 241 535.657 241 534H240ZM238 0V1C238.552 1 239 1.44771 239 2H240H241C241 0.343147 239.657 -1 238 -1V0ZM2 0V-1C0.343137 -1 -1 0.343169 -1 2.00001H0H1C1 1.44772 1.44772 1 2 1V0Z" fill="white" fill-opacity="0.1"/>
<rect width="240" height="536" fill="#765858"/>
<circle cx="114.5" cy="518.5" r="3.5" fill="#D9D9D9"/>
<circle cx="129" cy="518" r="6" fill="#D9D9D9"/>
<circle cx="102.5" cy="518.5" r="3.5" fill="#D9D9D9"/>
<circle cx="142.5" cy="518.5" r="3.5" fill="#D9D9D9"/>
<path d="M51.7995 109.328H53.5275C54.4662 109.328 55.1062 109.136 55.4475 108.752C55.8315 108.368 56.0235 107.771 56.0235 106.96V79.632C56.0235 78.8213 55.8315 78.2453 55.4475 77.904C55.1062 77.52 54.4662 77.328 53.5275 77.328H51.7995V72.592H73.7515C78.0182 72.592 81.3462 73.7013 83.7355 75.92C86.1675 78.096 87.3835 81.232 87.3835 85.328C87.3835 89.424 86.1462 92.6667 83.6715 95.056C81.2395 97.4027 77.9115 98.576 73.6875 98.576H62.8075V106.96C62.8075 107.771 62.9782 108.368 63.3195 108.752C63.7035 109.136 64.3648 109.328 65.3035 109.328H66.9675V114H51.7995V109.328ZM72.7915 93.84C75.4795 93.84 77.4635 93.1573 78.7435 91.792C80.0662 90.384 80.7275 88.2293 80.7275 85.328C80.7275 82.384 80.1088 80.3147 78.8715 79.12C77.6342 77.9253 75.6075 77.328 72.7915 77.328H62.8075V93.84H72.7915ZM89.987 109.264H91.843C92.6963 109.264 93.2937 109.072 93.635 108.688C94.019 108.304 94.211 107.685 94.211 106.832V78.736C94.211 77.9253 94.019 77.3493 93.635 77.008C93.2937 76.624 92.6963 76.432 91.843 76.432H89.987V71.632H101.059V106.896C101.059 107.707 101.251 108.304 101.635 108.688C102.019 109.072 102.616 109.264 103.427 109.264H105.283V114H89.987V109.264ZM118.654 114.96C115.241 114.96 112.638 114.213 110.846 112.72C109.097 111.227 108.222 109.115 108.222 106.384C108.222 103.312 109.182 101.072 111.102 99.664C113.065 98.2133 115.881 97.36 119.55 97.104L128.51 96.528V92.624C128.51 90.6187 128.083 89.168 127.23 88.272C126.377 87.376 124.926 86.928 122.878 86.928C121.47 86.928 120.297 87.056 119.358 87.312C118.462 87.5253 117.63 87.888 116.862 88.4V90.704H110.91V85.648C114.494 83.4293 118.526 82.32 123.006 82.32C131.198 82.32 135.294 85.9467 135.294 93.2V107.216C135.294 108.069 135.443 108.688 135.742 109.072C136.083 109.456 136.617 109.648 137.342 109.648H138.75V114H131.39L130.558 109.968C129.193 111.717 127.593 112.997 125.758 113.808C123.966 114.576 121.598 114.96 118.654 114.96ZM120.19 110.352C122.75 110.352 124.777 109.797 126.27 108.688C127.763 107.579 128.51 105.893 128.51 103.632V100.56L120.062 101.2C117.971 101.328 116.521 101.776 115.71 102.544C114.899 103.269 114.494 104.443 114.494 106.064C114.494 107.472 114.942 108.539 115.838 109.264C116.734 109.989 118.185 110.352 120.19 110.352ZM153.902 114.96C150.361 114.96 147.694 114.085 145.902 112.336C144.11 110.587 143.214 108.027 143.214 104.656V87.888H138.222V83.28H143.214V76.368L149.998 74.192V83.28H159.214V87.888H149.998V105.104C149.998 106.981 150.339 108.325 151.022 109.136C151.747 109.947 152.835 110.352 154.286 110.352C156.163 110.352 157.593 109.947 158.574 109.136V106.384H164.398V111.248C162.99 112.443 161.454 113.36 159.79 114C158.126 114.64 156.163 114.96 153.902 114.96ZM166.674 110.352L185.427 87.952H174.419C173.565 87.952 172.947 88.144 172.562 88.528C172.179 88.8693 171.987 89.4453 171.987 90.256V91.536H167.379V83.28H193.555V86.992L174.867 109.328H187.155C188.051 109.328 188.669 109.157 189.011 108.816C189.395 108.432 189.587 107.835 189.587 107.024V105.744H194.195V114H166.674V110.352ZM36.112 208.264H37.712C38.5653 208.264 39.1627 208.093 39.504 207.752C39.888 207.368 40.08 206.749 40.08 205.896V177.736C40.08 176.925 39.888 176.328 39.504 175.944C39.1627 175.56 38.5653 175.368 37.712 175.368H36.432V170.632H46.288V185.48C47.824 183.944 49.3813 182.877 50.96 182.28C52.5813 181.64 54.608 181.32 57.04 181.32C60.368 181.32 62.864 182.237 64.528 184.072C66.2347 185.907 67.088 188.531 67.088 191.944V205.896C67.088 206.749 67.2587 207.368 67.6 207.752C67.984 208.093 68.5813 208.264 69.392 208.264H71.184V213H60.112V192.008C60.112 189.875 59.6427 188.317 58.704 187.336C57.7653 186.355 56.336 185.864 54.416 185.864C52.24 185.864 50.448 186.504 49.04 187.784C47.632 189.021 46.928 190.749 46.928 192.968V205.896C46.928 206.749 47.0773 207.368 47.376 207.752C47.7173 208.093 48.272 208.264 49.04 208.264H50.768V213H36.112V208.264ZM84.529 213.96C81.1157 213.96 78.513 213.213 76.721 211.72C74.9717 210.227 74.097 208.115 74.097 205.384C74.097 202.312 75.057 200.072 76.977 198.664C78.9397 197.213 81.7557 196.36 85.425 196.104L94.385 195.528V191.624C94.385 189.619 93.9583 188.168 93.105 187.272C92.2517 186.376 90.801 185.928 88.753 185.928C87.345 185.928 86.1717 186.056 85.233 186.312C84.337 186.525 83.505 186.888 82.737 187.4V189.704H76.785V184.648C80.369 182.429 84.401 181.32 88.881 181.32C97.073 181.32 101.169 184.947 101.169 192.2V206.216C101.169 207.069 101.318 207.688 101.617 208.072C101.958 208.456 102.492 208.648 103.217 208.648H104.625V213H97.265L96.433 208.968C95.0677 210.717 93.4677 211.997 91.633 212.808C89.841 213.576 87.473 213.96 84.529 213.96ZM86.065 209.352C88.625 209.352 90.6517 208.797 92.145 207.688C93.6383 206.579 94.385 204.893 94.385 202.632V199.56L85.937 200.2C83.8463 200.328 82.3957 200.776 81.585 201.544C80.7743 202.269 80.369 203.443 80.369 205.064C80.369 206.472 80.817 207.539 81.713 208.264C82.609 208.989 84.0597 209.352 86.065 209.352ZM108.237 208.264H110.093C110.946 208.264 111.544 208.072 111.885 207.688C112.269 207.304 112.461 206.685 112.461 205.832V177.736C112.461 176.925 112.269 176.349 111.885 176.008C111.544 175.624 110.946 175.432 110.093 175.432H108.237V170.632H119.309V205.896C119.309 206.707 119.501 207.304 119.885 207.688C120.269 208.072 120.866 208.264 121.677 208.264H123.533V213H108.237V208.264ZM142.152 213.96C138.611 213.96 135.944 213.085 134.152 211.336C132.36 209.587 131.464 207.027 131.464 203.656V186.888H126.472V182.28H131.464V175.368L138.248 173.192V182.28H147.464V186.888H138.248V204.104C138.248 205.981 138.589 207.325 139.272 208.136C139.997 208.947 141.085 209.352 142.536 209.352C144.413 209.352 145.843 208.947 146.824 208.136V205.384H152.648V210.248C151.24 211.443 149.704 212.36 148.04 213C146.376 213.64 144.413 213.96 142.152 213.96ZM170.989 213.96C166.125 213.96 162.221 212.616 159.277 209.928C156.375 207.197 154.924 203.229 154.924 198.024C154.924 192.477 156.269 188.317 158.957 185.544C161.687 182.728 165.549 181.32 170.541 181.32C175.362 181.32 179.01 182.685 181.485 185.416C183.959 188.147 185.197 191.837 185.197 196.488V199.432H161.709C161.709 202.888 162.541 205.448 164.205 207.112C165.911 208.733 168.194 209.544 171.053 209.544C172.674 209.544 174.039 209.437 175.149 209.224C176.258 208.968 177.261 208.563 178.157 208.008V205.704H184.109V210.184C182.317 211.464 180.375 212.403 178.285 213C176.237 213.64 173.805 213.96 170.989 213.96ZM178.605 195.272C178.605 189.043 175.895 185.928 170.477 185.928C167.618 185.928 165.442 186.76 163.949 188.424C162.455 190.088 161.709 192.371 161.709 195.272H178.605ZM189.424 208.264H191.025C191.878 208.264 192.475 208.093 192.817 207.752C193.201 207.368 193.393 206.749 193.393 205.896V189.384C193.393 188.573 193.222 187.976 192.881 187.592C192.539 187.208 191.963 187.016 191.153 187.016H189.809V182.28H198.641L199.537 185.8C200.39 184.477 201.478 183.56 202.801 183.048C204.166 182.536 205.766 182.28 207.601 182.28H210.545V187.016H206.961C204.529 187.016 202.801 187.571 201.777 188.68C200.753 189.747 200.241 191.411 200.241 193.672V205.896C200.241 206.749 200.411 207.368 200.753 207.752C201.094 208.093 201.67 208.264 202.481 208.264H204.081V213H189.424V208.264Z" fill="white"/>
</svg>
