<svg width="240" height="536" viewBox="0 0 240 536" fill="none" xmlns="http://www.w3.org/2000/svg">
<rect width="240" height="536" fill="#1E1E1E"/>
<path d="M0 2.00001C0 0.895445 0.895431 0 2 0H238C239.105 0 240 0.89543 240 2V534C240 535.105 239.105 536 238 536H2C0.895429 536 0 535.105 0 534V2.00001Z" fill="#444444"/>
<path d="M2 0V1H238V0V-1H2V0ZM240 2H239V534H240H241V2H240ZM238 536V535H2V536V537H238V536ZM0 534H1V2.00001H0H-1V534H0ZM2 536V535C1.44771 535 1 534.552 1 534H0H-1C-1 535.657 0.343143 537 2 537V536ZM240 534H239C239 534.552 238.552 535 238 535V536V537C239.657 537 241 535.657 241 534H240ZM238 0V1C238.552 1 239 1.44771 239 2H240H241C241 0.343147 239.657 -1 238 -1V0ZM2 0V-1C0.343137 -1 -1 0.343169 -1 2.00001H0H1C1 1.44772 1.44772 1 2 1V0Z" fill="white" fill-opacity="0.1"/>
<rect width="240" height="536" fill="#765858"/>
<circle cx="115.5" cy="518.5" r="3.5" fill="#D9D9D9"/>
<circle cx="100" cy="519" r="6" fill="#D9D9D9"/>
<circle cx="130.5" cy="518.5" r="3.5" fill="#D9D9D9"/>
<circle cx="143.5" cy="518.5" r="3.5" fill="#D9D9D9"/>
<rect x="15" y="53" width="210" height="210" fill="#D9D9D9"/>
<path d="M204.121 486.375C203.938 486.375 203.756 486.343 203.584 486.282V444.512C203.756 444.45 203.938 444.419 204.121 444.419C206.756 444.419 209.194 448.324 210.812 449.887L210.449 440.419C210.449 430.42 207.514 422.366 202.811 416.257C201.958 416.321 201.102 416.198 200.303 415.897C199.503 415.596 198.781 415.124 198.187 414.515L197.651 413.968C190.841 407.297 181.444 404.29 172.165 404.462C162.886 404.633 153.638 408 147.27 414.031L146.75 414.531C146.092 415.19 145.282 415.68 144.389 415.959C143.497 416.238 142.55 416.297 141.629 416.132C136.895 422.257 133.936 430.357 133.936 440.458L133.573 451.308C135.348 449.191 138.575 444.543 141.463 444.419V486.375C135.301 486.25 130.874 476.634 129.367 471.908H127V440.458C126.996 430.168 130.57 420.19 137.123 412.203C136.81 411.207 136.777 410.146 137.028 409.133C137.278 408.12 137.802 407.194 138.544 406.454L139.333 405.711C147.799 397.697 159.84 393.244 171.975 393.01C184.111 392.775 196.633 396.837 205.801 405.868L206.519 406.594C207.232 407.326 207.735 408.234 207.976 409.222C208.218 410.211 208.189 411.245 207.892 412.219C214.432 420.2 218.001 430.165 218 440.442V471.908H216.256C214.765 476.704 210.307 486.414 204.113 486.414L204.121 486.375ZM199.742 489H192.64C191.913 489 191.216 488.715 190.701 488.207C190.187 487.698 189.896 487.009 189.894 486.289V444.294C189.896 443.573 190.186 442.883 190.701 442.374C191.215 441.864 191.913 441.577 192.64 441.575H199.742V489ZM145.298 441.575H153.038C153.765 441.579 154.461 441.867 154.975 442.376C155.489 442.885 155.78 443.574 155.784 444.294V486.289C155.78 487.008 155.489 487.697 154.975 488.204C154.461 488.712 153.765 488.998 153.038 489H145.258V441.575H145.298Z" fill="#D9D9D9"/>
<path d="M79.3292 446.508C79.8688 445.236 81.3038 444.655 82.5362 445.211C83.7701 445.767 84.3343 447.252 83.7962 448.528L81.5619 447.521C83.6459 448.46 83.7856 448.524 83.7946 448.53V448.533L83.7835 448.556C83.7778 448.569 83.7703 448.586 83.7613 448.607C83.743 448.648 83.7187 448.706 83.6867 448.776C83.6223 448.917 83.5289 449.114 83.4074 449.358C83.1646 449.847 82.8046 450.528 82.3204 451.338C81.3545 452.955 79.8804 455.108 77.8327 457.266C73.7248 461.594 67.2422 466 58 466C48.7578 466 42.2752 461.594 38.1673 457.266C36.1196 455.108 34.6455 452.955 33.6796 451.338C33.1954 450.528 32.8354 449.847 32.5926 449.358C32.4711 449.114 32.3777 448.917 32.3133 448.776C32.2813 448.706 32.257 448.648 32.2387 448.607C32.2297 448.586 32.2222 448.569 32.2165 448.556L32.2054 448.533V448.53C32.2144 448.524 32.3542 448.46 34.4381 447.521L32.2038 448.528C31.6657 447.252 32.2299 445.767 33.4638 445.211C34.6962 444.655 36.1312 445.236 36.6708 446.508L36.6772 446.525C36.6854 446.543 36.7005 446.577 36.7216 446.623C36.7641 446.716 36.8325 446.863 36.9279 447.055C37.119 447.439 37.4163 448.005 37.8261 448.69C38.6482 450.066 39.9085 451.903 41.6473 453.735C45.1128 457.387 50.4123 460.96 58 460.96C65.5877 460.96 70.8872 457.387 74.3527 453.735C76.0915 451.903 77.3518 450.066 78.1739 448.69C78.5837 448.005 78.881 447.439 79.0721 447.055C79.1675 446.863 79.2359 446.716 79.2784 446.623C79.2995 446.577 79.3146 446.543 79.3228 446.525C79.3265 446.516 79.3282 446.511 79.3292 446.508Z" fill="#D9D9D9"/>
<path d="M55 465H61V486H55L55 465Z" fill="#D9D9D9"/>
<path d="M68.4688 485C69.8667 485 71 485.895 71 487C71 488.105 69.8667 489 68.4688 489H46.5312C45.1333 489 44 488.105 44 487C44 485.895 45.1333 485 46.5312 485H68.4688Z" fill="#D9D9D9"/>
<path d="M57.1739 393C47.1367 393 39 400.956 39 410.769V438.231C39 448.044 47.1367 456 57.1739 456H58.8261C68.8633 456 77 448.044 77 438.231V410.769C77 400.956 68.8633 393 58.8261 393H57.1739Z" fill="#D9D9D9"/>
<path d="M79.3292 446.508C79.8688 445.236 81.3038 444.655 82.5362 445.211C83.7701 445.767 84.3343 447.252 83.7962 448.528L81.5619 447.521C83.6459 448.46 83.7856 448.524 83.7946 448.53V448.533L83.7835 448.556C83.7778 448.569 83.7703 448.586 83.7613 448.607C83.743 448.648 83.7187 448.706 83.6867 448.776C83.6223 448.917 83.5289 449.114 83.4074 449.358C83.1646 449.847 82.8046 450.528 82.3204 451.338C81.3545 452.955 79.8804 455.108 77.8327 457.266C73.7248 461.594 67.2422 466 58 466C48.7578 466 42.2752 461.594 38.1673 457.266C36.1196 455.108 34.6455 452.955 33.6796 451.338C33.1954 450.528 32.8354 449.847 32.5926 449.358C32.4711 449.114 32.3777 448.917 32.3133 448.776C32.2813 448.706 32.257 448.648 32.2387 448.607C32.2297 448.586 32.2222 448.569 32.2165 448.556L32.2054 448.533V448.53C32.2144 448.524 32.3542 448.46 34.4381 447.521L32.2038 448.528C31.6657 447.252 32.2299 445.767 33.4638 445.211C34.6962 444.655 36.1312 445.236 36.6708 446.508L36.6772 446.525C36.6854 446.543 36.7005 446.577 36.7216 446.623C36.7641 446.716 36.8325 446.863 36.9279 447.055C37.119 447.439 37.4163 448.005 37.8261 448.69C38.6482 450.066 39.9085 451.903 41.6473 453.735C45.1128 457.387 50.4123 460.96 58 460.96C65.5877 460.96 70.8872 457.387 74.3527 453.735C76.0915 451.903 77.3518 450.066 78.1739 448.69C78.5837 448.005 78.881 447.439 79.0721 447.055C79.1675 446.863 79.2359 446.716 79.2784 446.623C79.2995 446.577 79.3146 446.543 79.3228 446.525C79.3265 446.516 79.3282 446.511 79.3292 446.508Z" fill="#D9D9D9"/>
<path d="M55 465H61V486H55L55 465Z" fill="#D9D9D9"/>
<path d="M68.4688 485C69.8667 485 71 485.895 71 487C71 488.105 69.8667 489 68.4688 489H46.5312C45.1333 489 44 488.105 44 487C44 485.895 45.1333 485 46.5312 485H68.4688Z" fill="#D9D9D9"/>
<path d="M57.1739 393C47.1367 393 39 400.956 39 410.769V438.231C39 448.044 47.1367 456 57.1739 456H58.8261C68.8633 456 77 448.044 77 438.231V410.769C77 400.956 68.8633 393 58.8261 393H57.1739Z" fill="#D9D9D9"/>
<path d="M38.5 410C44.8513 410 50 412.239 50 415C50 417.761 44.8513 420 38.5 420C32.1487 420 27 417.761 27 415C27 412.239 32.1487 410 38.5 410Z" fill="#765858"/>
<path d="M76.5 426C82.8513 426 88 428.239 88 431C88 433.761 82.8513 436 76.5 436C70.1487 436 65 433.761 65 431C65 428.239 70.1487 426 76.5 426Z" fill="#765858"/>
<path d="M76.5 410C82.8513 410 88 412.239 88 415C88 417.761 82.8513 420 76.5 420C70.1487 420 65 417.761 65 415C65 412.239 70.1487 410 76.5 410Z" fill="#765858"/>
<path d="M38.5 426C44.8513 426 50 428.239 50 431C50 433.761 44.8513 436 38.5 436C32.1487 436 27 433.761 27 431C27 428.239 32.1487 426 38.5 426Z" fill="#765858"/>
</svg>
