<svg width="240" height="536" viewBox="0 0 240 536" fill="none" xmlns="http://www.w3.org/2000/svg">
<rect width="240" height="536" fill="#1E1E1E"/>
<path d="M0 2.00001C0 0.895445 0.895431 0 2 0H238C239.105 0 240 0.89543 240 2V534C240 535.105 239.105 536 238 536H2C0.895429 536 0 535.105 0 534V2.00001Z" fill="#444444"/>
<path d="M2 0V1H238V0V-1H2V0ZM240 2H239V534H240H241V2H240ZM238 536V535H2V536V537H238V536ZM0 534H1V2.00001H0H-1V534H0ZM2 536V535C1.44771 535 1 534.552 1 534H0H-1C-1 535.657 0.343143 537 2 537V536ZM240 534H239C239 534.552 238.552 535 238 535V536V537C239.657 537 241 535.657 241 534H240ZM238 0V1C238.552 1 239 1.44771 239 2H240H241C241 0.343147 239.657 -1 238 -1V0ZM2 0V-1C0.343137 -1 -1 0.343169 -1 2.00001H0H1C1 1.44772 1.44772 1 2 1V0Z" fill="white" fill-opacity="0.1"/>
<rect width="240" height="536" fill="#765858"/>
<circle cx="3.5" cy="3.5" r="3.5" transform="matrix(-1 0 0 1 128 514)" fill="#D9D9D9"/>
<circle cx="6" cy="6" r="6" transform="matrix(-1 0 0 1 146 512)" fill="#D9D9D9"/>
<circle cx="3.5" cy="3.5" r="3.5" transform="matrix(-1 0 0 1 113 514)" fill="#D9D9D9"/>
<circle cx="3.5" cy="3.5" r="3.5" transform="matrix(-1 0 0 1 100 514)" fill="#D9D9D9"/>
<path d="M43.3083 90.72C41.0683 90.72 38.9403 90.4 36.9243 89.76C34.9083 89.12 33.1803 88.256 31.7402 87.168V82.464H36.8763V85.584C37.6763 86.064 38.6523 86.448 39.8043 86.736C40.9883 87.024 42.1883 87.168 43.4043 87.168C45.3243 87.168 46.7803 86.768 47.7723 85.968C48.7643 85.136 49.2603 83.968 49.2603 82.464C49.2603 81.408 48.9883 80.528 48.4443 79.824C47.9323 79.12 47.1963 78.512 46.2363 78C45.2763 77.488 43.9483 76.896 42.2523 76.224C39.8843 75.296 37.9803 74.416 36.5403 73.584C35.1003 72.752 33.9803 71.776 33.1803 70.656C32.4123 69.504 32.0283 68.112 32.0283 66.48C32.0283 63.76 33.0683 61.712 35.1483 60.336C37.2283 58.928 39.9003 58.224 43.1643 58.224C45.3083 58.224 47.2603 58.528 49.0203 59.136C50.8123 59.744 52.3483 60.544 53.6283 61.536V66H48.4923V63.024C47.0843 62.192 45.2283 61.776 42.9243 61.776C41.0683 61.776 39.6123 62.144 38.5563 62.88C37.5003 63.616 36.9723 64.768 36.9723 66.336C36.9723 67.424 37.3083 68.336 37.9803 69.072C38.6523 69.808 39.4203 70.384 40.2843 70.8C41.1483 71.216 42.4923 71.792 44.3163 72.528C46.7483 73.488 48.6203 74.336 49.9323 75.072C51.2443 75.808 52.2843 76.752 53.0523 77.904C53.8203 79.024 54.2043 80.48 54.2043 82.272C54.2043 83.904 53.7723 85.36 52.9083 86.64C52.0763 87.888 50.8443 88.88 49.2123 89.616C47.5803 90.352 45.6123 90.72 43.3083 90.72ZM69.4289 90.72C65.7809 90.72 62.8529 89.712 60.6449 87.696C58.4689 85.648 57.3809 82.672 57.3809 78.768C57.3809 74.608 58.3889 71.488 60.4049 69.408C62.4529 67.296 65.3489 66.24 69.0929 66.24C72.7089 66.24 75.4449 67.264 77.3009 69.312C79.1569 71.36 80.0849 74.128 80.0849 77.616V79.824H62.4689C62.4689 82.416 63.0929 84.336 64.3409 85.584C65.6209 86.8 67.3329 87.408 69.4769 87.408C70.6929 87.408 71.7169 87.328 72.5489 87.168C73.3809 86.976 74.1329 86.672 74.8049 86.256V84.528H79.2689V87.888C77.9249 88.848 76.4689 89.552 74.9009 90C73.3649 90.48 71.5409 90.72 69.4289 90.72ZM75.1409 76.704C75.1409 72.032 73.1089 69.696 69.0449 69.696C66.9009 69.696 65.2689 70.32 64.1489 71.568C63.0289 72.816 62.4689 74.528 62.4689 76.704H75.1409ZM93.3171 90.72C90.6611 90.72 88.6611 90.064 87.3171 88.752C85.9731 87.44 85.3011 85.52 85.3011 82.992V70.416H81.5571V66.96H85.3011V61.776L90.3891 60.144V66.96H97.3011V70.416H90.3891V83.328C90.3891 84.736 90.6451 85.744 91.1571 86.352C91.7011 86.96 92.5171 87.264 93.6051 87.264C95.0131 87.264 96.0851 86.96 96.8211 86.352V84.288H101.189V87.936C100.133 88.832 98.9811 89.52 97.7331 90C96.4851 90.48 95.0131 90.72 93.3171 90.72ZM111.036 90.72C108.38 90.72 106.38 90.064 105.036 88.752C103.692 87.44 103.02 85.52 103.02 82.992V70.416H99.2759V66.96H103.02V61.776L108.108 60.144V66.96H115.02V70.416H108.108V83.328C108.108 84.736 108.364 85.744 108.876 86.352C109.42 86.96 110.236 87.264 111.324 87.264C112.732 87.264 113.804 86.96 114.54 86.352V84.288H118.908V87.936C117.852 88.832 116.7 89.52 115.452 90C114.204 90.48 112.732 90.72 111.036 90.72ZM123.159 58.896H128.583V63.312H123.159V58.896ZM120.135 86.448H121.527C122.167 86.448 122.615 86.304 122.871 86.016C123.159 85.728 123.303 85.264 123.303 84.624V72.288C123.303 71.68 123.159 71.248 122.871 70.992C122.615 70.704 122.167 70.56 121.527 70.56H120.135V66.96H128.439V84.672C128.439 85.28 128.583 85.728 128.871 86.016C129.159 86.304 129.607 86.448 130.215 86.448H131.607V90H120.135V86.448ZM134.303 86.448H135.503C136.143 86.448 136.591 86.32 136.847 86.064C137.135 85.776 137.279 85.312 137.279 84.672V72.336C137.279 71.696 137.151 71.248 136.895 70.992C136.639 70.704 136.191 70.56 135.551 70.56H134.543V66.96H140.687L140.975 70.176C142.063 68.8 143.295 67.808 144.671 67.2C146.079 66.56 147.775 66.24 149.759 66.24C154.879 66.24 157.439 68.896 157.439 74.208V84.672C157.439 85.312 157.567 85.776 157.823 86.064C158.111 86.32 158.575 86.448 159.215 86.448H160.559V90H152.303V74.256C152.303 72.656 151.967 71.504 151.295 70.8C150.623 70.064 149.535 69.696 148.031 69.696C146.399 69.696 145.055 70.16 143.999 71.088C142.943 72.016 142.415 73.312 142.415 74.976V84.672C142.415 85.312 142.527 85.776 142.751 86.064C143.007 86.32 143.439 86.448 144.047 86.448H145.295V90H134.303V86.448ZM176.425 99.6C172.617 99.6 169.545 98.48 167.209 96.24V92.928H171.625V94.656C172.233 95.104 172.873 95.408 173.545 95.568C174.249 95.76 175.097 95.856 176.089 95.856C179.417 95.856 181.081 94.176 181.081 90.816V86.976C180.217 88.16 179.161 89.024 177.913 89.568C176.665 90.112 175.177 90.384 173.449 90.384C170.185 90.384 167.657 89.344 165.865 87.264C164.105 85.184 163.225 82.16 163.225 78.192C163.225 74.384 164.153 71.44 166.009 69.36C167.897 67.28 170.441 66.24 173.641 66.24C175.497 66.24 177.065 66.576 178.345 67.248C179.625 67.888 180.745 68.928 181.705 70.368L182.137 66.912H188.569V70.224H187.561C186.985 70.224 186.585 70.384 186.361 70.704C186.137 70.992 186.025 71.488 186.025 72.192V90.048C186.025 92.928 185.145 95.232 183.385 96.96C181.657 98.72 179.337 99.6 176.425 99.6ZM174.649 86.64C176.697 86.64 178.249 86.048 179.305 84.864C180.393 83.648 180.937 81.872 180.937 79.536V77.328C180.937 75.056 180.393 73.264 179.305 71.952C178.217 70.608 176.649 69.936 174.601 69.936C172.361 69.936 170.729 70.592 169.705 71.904C168.713 73.184 168.217 75.28 168.217 78.192C168.217 81.232 168.713 83.408 169.705 84.72C170.697 86 172.345 86.64 174.649 86.64ZM200.904 90.72C197.032 90.72 193.816 89.792 191.256 87.936V84.192H195.96V86.112C197.272 86.88 198.872 87.264 200.76 87.264C202.2 87.264 203.272 87.04 203.976 86.592C204.712 86.144 205.08 85.408 205.08 84.384C205.08 83.712 204.888 83.168 204.504 82.752C204.152 82.304 203.656 81.936 203.016 81.648C202.376 81.328 201.112 80.784 199.224 80.016C197.336 79.248 195.88 78.592 194.856 78.048C193.864 77.472 193.048 76.752 192.408 75.888C191.8 75.024 191.496 73.936 191.496 72.624C191.496 70.512 192.312 68.928 193.944 67.872C195.576 66.784 197.8 66.24 200.616 66.24C202.408 66.24 204.088 66.48 205.656 66.96C207.224 67.408 208.584 68.064 209.736 68.928V72.528H205.128V70.752C203.976 70.048 202.6 69.696 201 69.696C199.56 69.696 198.472 69.92 197.736 70.368C197.032 70.816 196.68 71.568 196.68 72.624C196.68 73.584 197.064 74.336 197.832 74.88C198.6 75.392 199.784 75.936 201.384 76.512C201.832 76.64 202.328 76.816 202.872 77.04C204.536 77.68 205.864 78.272 206.856 78.816C207.848 79.36 208.664 80.08 209.304 80.976C209.944 81.872 210.264 83.008 210.264 84.384C210.264 86.432 209.48 88 207.912 89.088C206.376 90.176 204.04 90.72 200.904 90.72Z" fill="white"/>
<rect x="16" y="126" width="82" height="82" fill="#D9D9D9"/>
<rect x="142" y="126" width="82" height="82" fill="#D9D9D9"/>
<rect x="16" y="370" width="82" height="82" fill="#D9D9D9"/>
<rect x="143" y="370" width="82" height="82" fill="#D9D9D9"/>
<rect x="16" y="248" width="82" height="82" fill="#D9D9D9"/>
<rect x="143" y="248" width="82" height="82" fill="#D9D9D9"/>
<path d="M18.8249 345.832H19.2889C19.5022 345.832 19.6515 345.784 19.7369 345.688C19.8329 345.592 19.8809 345.437 19.8809 345.224V338.408C19.8809 338.205 19.8329 338.061 19.7369 337.976C19.6515 337.88 19.5022 337.832 19.2889 337.832H18.8249V336.648H24.2009C25.1182 336.648 25.8222 336.888 26.3129 337.368C26.8035 337.848 27.0489 338.525 27.0489 339.4C27.0489 339.923 26.9262 340.392 26.6809 340.808C26.4355 341.213 26.0782 341.523 25.6089 341.736C26.1422 341.917 26.5422 342.216 26.8089 342.632C27.0862 343.037 27.2249 343.539 27.2249 344.136C27.2249 344.968 26.9795 345.656 26.4889 346.2C25.9982 346.733 25.3209 347 24.4569 347H18.8249V345.832ZM23.6409 341.192C24.1849 341.192 24.6115 341.043 24.9209 340.744C25.2302 340.445 25.3849 340.024 25.3849 339.48C25.3849 338.915 25.2515 338.499 24.9849 338.232C24.7289 337.955 24.3075 337.816 23.7209 337.816H21.5769V341.192H23.6409ZM23.9929 345.832C24.4835 345.832 24.8675 345.688 25.1449 345.4C25.4222 345.101 25.5609 344.664 25.5609 344.088C25.5609 343.491 25.4115 343.059 25.1129 342.792C24.8142 342.525 24.3555 342.392 23.7369 342.392H21.5769V345.832H23.9929ZM28.278 345.816H28.678C28.8913 345.816 29.0407 345.773 29.126 345.688C29.222 345.592 29.27 345.437 29.27 345.224V341.096C29.27 340.893 29.2273 340.744 29.142 340.648C29.0567 340.552 28.9127 340.504 28.71 340.504H28.374V339.32H30.582L30.806 340.2C31.0193 339.869 31.2913 339.64 31.622 339.512C31.9633 339.384 32.3633 339.32 32.822 339.32H33.558V340.504H32.662C32.054 340.504 31.622 340.643 31.366 340.92C31.11 341.187 30.982 341.603 30.982 342.168V345.224C30.982 345.437 31.0247 345.592 31.11 345.688C31.1953 345.773 31.3393 345.816 31.542 345.816H31.942V347H28.278V345.816ZM35.2979 336.632H37.1059V338.104H35.2979V336.632ZM34.2899 345.816H34.7539C34.9672 345.816 35.1165 345.768 35.2019 345.672C35.2979 345.576 35.3459 345.421 35.3459 345.208V341.096C35.3459 340.893 35.2979 340.749 35.2019 340.664C35.1165 340.568 34.9672 340.52 34.7539 340.52H34.2899V339.32H37.0579V345.224C37.0579 345.427 37.1059 345.576 37.2019 345.672C37.2979 345.768 37.4472 345.816 37.6499 345.816H38.1139V347H34.2899V345.816ZM43.4124 350.2C42.143 350.2 41.119 349.827 40.3404 349.08V347.976H41.8124V348.552C42.015 348.701 42.2284 348.803 42.4524 348.856C42.687 348.92 42.9697 348.952 43.3004 348.952C44.4097 348.952 44.9644 348.392 44.9644 347.272V345.992C44.6764 346.387 44.3244 346.675 43.9084 346.856C43.4924 347.037 42.9964 347.128 42.4204 347.128C41.3324 347.128 40.4897 346.781 39.8924 346.088C39.3057 345.395 39.0124 344.387 39.0124 343.064C39.0124 341.795 39.3217 340.813 39.9404 340.12C40.5697 339.427 41.4177 339.08 42.4844 339.08C43.103 339.08 43.6257 339.192 44.0524 339.416C44.479 339.629 44.8524 339.976 45.1724 340.456L45.3164 339.304H47.4604V340.408H47.1244C46.9324 340.408 46.799 340.461 46.7244 340.568C46.6497 340.664 46.6124 340.829 46.6124 341.064V347.016C46.6124 347.976 46.319 348.744 45.7324 349.32C45.1564 349.907 44.383 350.2 43.4124 350.2ZM42.8204 345.88C43.503 345.88 44.0204 345.683 44.3724 345.288C44.735 344.883 44.9164 344.291 44.9164 343.512V342.776C44.9164 342.019 44.735 341.421 44.3724 340.984C44.0097 340.536 43.487 340.312 42.8044 340.312C42.0577 340.312 41.5137 340.531 41.1724 340.968C40.8417 341.395 40.6764 342.093 40.6764 343.064C40.6764 344.077 40.8417 344.803 41.1724 345.24C41.503 345.667 42.0524 345.88 42.8204 345.88ZM47.9499 345.816H48.3499C48.5632 345.816 48.7125 345.773 48.7979 345.688C48.8939 345.592 48.9419 345.437 48.9419 345.224V338.184C48.9419 337.981 48.8939 337.832 48.7979 337.736C48.7125 337.64 48.5632 337.592 48.3499 337.592H48.0299V336.408H50.4939V340.12C50.8779 339.736 51.2672 339.469 51.6619 339.32C52.0672 339.16 52.5739 339.08 53.1819 339.08C54.0139 339.08 54.6379 339.309 55.0539 339.768C55.4805 340.227 55.6939 340.883 55.6939 341.736V345.224C55.6939 345.437 55.7365 345.592 55.8219 345.688C55.9179 345.773 56.0672 345.816 56.2699 345.816H56.7179V347H53.9499V341.752C53.9499 341.219 53.8325 340.829 53.5979 340.584C53.3632 340.339 53.0059 340.216 52.5259 340.216C51.9819 340.216 51.5339 340.376 51.1819 340.696C50.8299 341.005 50.6539 341.437 50.6539 341.992V345.224C50.6539 345.437 50.6912 345.592 50.7659 345.688C50.8512 345.773 50.9899 345.816 51.1819 345.816H51.6139V347H47.9499V345.816ZM60.8036 347.24C59.9183 347.24 59.2516 347.021 58.8036 346.584C58.3556 346.147 58.1316 345.507 58.1316 344.664V340.472H56.8836V339.32H58.1316V337.592L59.8276 337.048V339.32H62.1316V340.472H59.8276V344.776C59.8276 345.245 59.913 345.581 60.0836 345.784C60.265 345.987 60.537 346.088 60.8996 346.088C61.369 346.088 61.7263 345.987 61.9716 345.784V345.096H63.4276V346.312C63.0756 346.611 62.6916 346.84 62.2756 347C61.8596 347.16 61.369 347.24 60.8036 347.24ZM63.9967 345.816H64.3968C64.6101 345.816 64.7594 345.773 64.8448 345.688C64.9408 345.592 64.9888 345.437 64.9888 345.224V341.112C64.9888 340.899 64.9461 340.749 64.8608 340.664C64.7754 340.568 64.6261 340.52 64.4128 340.52H64.0768V339.32H66.1248L66.2208 340.392C66.5834 339.933 66.9941 339.603 67.4528 339.4C67.9221 339.187 68.4874 339.08 69.1488 339.08C70.8554 339.08 71.7088 339.965 71.7088 341.736V345.224C71.7088 345.437 71.7514 345.592 71.8368 345.688C71.9328 345.773 72.0874 345.816 72.3008 345.816H72.7488V347H69.9968V341.752C69.9968 341.219 69.8848 340.835 69.6608 340.6C69.4368 340.355 69.0741 340.232 68.5728 340.232C68.0288 340.232 67.5808 340.387 67.2288 340.696C66.8768 341.005 66.7008 341.437 66.7008 341.992V345.224C66.7008 345.437 66.7381 345.592 66.8128 345.688C66.8981 345.773 67.0421 345.816 67.2448 345.816H67.6608V347H63.9967V345.816ZM77.6534 347.24C76.4374 347.24 75.4614 346.904 74.7254 346.232C74 345.549 73.6374 344.557 73.6374 343.256C73.6374 341.869 73.9734 340.829 74.6454 340.136C75.328 339.432 76.2934 339.08 77.5414 339.08C78.7467 339.08 79.6587 339.421 80.2774 340.104C80.896 340.787 81.2054 341.709 81.2054 342.872V343.608H75.3334C75.3334 344.472 75.5414 345.112 75.9574 345.528C76.384 345.933 76.9547 346.136 77.6694 346.136C78.0747 346.136 78.416 346.109 78.6934 346.056C78.9707 345.992 79.2214 345.891 79.4454 345.752V345.176H80.9334V346.296C80.4854 346.616 80 346.851 79.4774 347C78.9654 347.16 78.3574 347.24 77.6534 347.24ZM79.5574 342.568C79.5574 341.011 78.88 340.232 77.5254 340.232C76.8107 340.232 76.2667 340.44 75.8934 340.856C75.52 341.272 75.3334 341.843 75.3334 342.568H79.5574ZM85.0721 347.24C83.7815 347.24 82.7095 346.931 81.8561 346.312V345.064H83.4241V345.704C83.8615 345.96 84.3948 346.088 85.0241 346.088C85.5041 346.088 85.8615 346.013 86.0961 345.864C86.3415 345.715 86.4641 345.469 86.4641 345.128C86.4641 344.904 86.4001 344.723 86.2721 344.584C86.1548 344.435 85.9895 344.312 85.7761 344.216C85.5628 344.109 85.1415 343.928 84.5121 343.672C83.8828 343.416 83.3975 343.197 83.0561 343.016C82.7255 342.824 82.4535 342.584 82.2401 342.296C82.0375 342.008 81.9361 341.645 81.9361 341.208C81.9361 340.504 82.2081 339.976 82.7521 339.624C83.2961 339.261 84.0375 339.08 84.9761 339.08C85.5735 339.08 86.1335 339.16 86.6561 339.32C87.1788 339.469 87.6321 339.688 88.0161 339.976V341.176H86.4801V340.584C86.0961 340.349 85.6375 340.232 85.1041 340.232C84.6241 340.232 84.2615 340.307 84.0161 340.456C83.7815 340.605 83.6641 340.856 83.6641 341.208C83.6641 341.528 83.7921 341.779 84.0481 341.96C84.3041 342.131 84.6988 342.312 85.2321 342.504C85.3815 342.547 85.5468 342.605 85.7281 342.68C86.2828 342.893 86.7255 343.091 87.0561 343.272C87.3868 343.453 87.6588 343.693 87.8721 343.992C88.0855 344.291 88.1921 344.669 88.1921 345.128C88.1921 345.811 87.9308 346.333 87.4081 346.696C86.8961 347.059 86.1175 347.24 85.0721 347.24ZM92.0565 347.24C90.7658 347.24 89.6938 346.931 88.8405 346.312V345.064H90.4085V345.704C90.8458 345.96 91.3792 346.088 92.0085 346.088C92.4885 346.088 92.8458 346.013 93.0805 345.864C93.3258 345.715 93.4485 345.469 93.4485 345.128C93.4485 344.904 93.3845 344.723 93.2565 344.584C93.1392 344.435 92.9738 344.312 92.7605 344.216C92.5472 344.109 92.1258 343.928 91.4965 343.672C90.8672 343.416 90.3818 343.197 90.0405 343.016C89.7098 342.824 89.4378 342.584 89.2245 342.296C89.0218 342.008 88.9205 341.645 88.9205 341.208C88.9205 340.504 89.1925 339.976 89.7365 339.624C90.2805 339.261 91.0218 339.08 91.9605 339.08C92.5578 339.08 93.1178 339.16 93.6405 339.32C94.1632 339.469 94.6165 339.688 95.0005 339.976V341.176H93.4645V340.584C93.0805 340.349 92.6218 340.232 92.0885 340.232C91.6085 340.232 91.2458 340.307 91.0005 340.456C90.7658 340.605 90.6485 340.856 90.6485 341.208C90.6485 341.528 90.7765 341.779 91.0325 341.96C91.2885 342.131 91.6832 342.312 92.2165 342.504C92.3658 342.547 92.5312 342.605 92.7125 342.68C93.2672 342.893 93.7098 343.091 94.0405 343.272C94.3712 343.453 94.6432 343.693 94.8565 343.992C95.0698 344.291 95.1765 344.669 95.1765 345.128C95.1765 345.811 94.9152 346.333 94.3925 346.696C93.8805 347.059 93.1018 347.24 92.0565 347.24Z" fill="white"/>
<path d="M165.294 345.832H165.758C165.971 345.832 166.12 345.784 166.206 345.688C166.302 345.592 166.35 345.437 166.35 345.224V338.408C166.35 338.205 166.302 338.061 166.206 337.976C166.12 337.88 165.971 337.832 165.758 337.832H165.294V336.648H172.958V338.712H171.422V338.392C171.422 338.189 171.374 338.045 171.278 337.96C171.182 337.864 171.027 337.816 170.814 337.816H168.046V341.224H170.814V342.408H168.046V345.24C168.046 345.453 168.088 345.608 168.174 345.704C168.27 345.789 168.419 345.832 168.622 345.832H169.102V347H165.294V345.832ZM173.814 336.632H175.622V338.104H173.814V336.632ZM172.806 345.816H173.27C173.483 345.816 173.632 345.768 173.718 345.672C173.814 345.576 173.862 345.421 173.862 345.208V341.096C173.862 340.893 173.814 340.749 173.718 340.664C173.632 340.568 173.483 340.52 173.27 340.52H172.806V339.32H175.574V345.224C175.574 345.427 175.622 345.576 175.718 345.672C175.814 345.768 175.963 345.816 176.166 345.816H176.63V347H172.806V345.816ZM177.528 345.816H177.992C178.205 345.816 178.355 345.768 178.44 345.672C178.536 345.576 178.584 345.421 178.584 345.208V338.184C178.584 337.981 178.536 337.837 178.44 337.752C178.355 337.656 178.205 337.608 177.992 337.608H177.528V336.408H180.296V345.224C180.296 345.427 180.344 345.576 180.44 345.672C180.536 345.768 180.685 345.816 180.888 345.816H181.352V347H177.528V345.816ZM182.247 345.816H182.711C182.924 345.816 183.073 345.768 183.159 345.672C183.255 345.576 183.303 345.421 183.303 345.208V338.184C183.303 337.981 183.255 337.837 183.159 337.752C183.073 337.656 182.924 337.608 182.711 337.608H182.247V336.408H185.015V345.224C185.015 345.427 185.063 345.576 185.159 345.672C185.255 345.768 185.404 345.816 185.607 345.816H186.071V347H182.247V345.816ZM190.982 347.24C189.766 347.24 188.79 346.904 188.054 346.232C187.328 345.549 186.965 344.557 186.965 343.256C186.965 341.869 187.302 340.829 187.974 340.136C188.656 339.432 189.622 339.08 190.87 339.08C192.075 339.08 192.987 339.421 193.606 340.104C194.224 340.787 194.534 341.709 194.534 342.872V343.608H188.662C188.662 344.472 188.87 345.112 189.286 345.528C189.712 345.933 190.283 346.136 190.998 346.136C191.403 346.136 191.744 346.109 192.022 346.056C192.299 345.992 192.55 345.891 192.774 345.752V345.176H194.262V346.296C193.814 346.616 193.328 346.851 192.806 347C192.294 347.16 191.686 347.24 190.982 347.24ZM192.886 342.568C192.886 341.011 192.208 340.232 190.854 340.232C190.139 340.232 189.595 340.44 189.222 340.856C188.848 341.272 188.662 341.843 188.662 342.568H192.886ZM195.59 345.816H195.991C196.204 345.816 196.353 345.773 196.439 345.688C196.535 345.592 196.583 345.437 196.583 345.224V341.096C196.583 340.893 196.54 340.744 196.455 340.648C196.369 340.552 196.225 340.504 196.023 340.504H195.687V339.32H197.895L198.119 340.2C198.332 339.869 198.604 339.64 198.935 339.512C199.276 339.384 199.676 339.32 200.135 339.32H200.871V340.504H199.975C199.367 340.504 198.935 340.643 198.679 340.92C198.423 341.187 198.295 341.603 198.295 342.168V345.224C198.295 345.437 198.337 345.592 198.423 345.688C198.508 345.773 198.652 345.816 198.855 345.816H199.255V347H195.59V345.816Z" fill="white"/>
<path d="M34.3171 471.848H34.6851C34.8984 471.848 35.0477 471.8 35.1331 471.704C35.2291 471.608 35.2771 471.453 35.2771 471.24V464.392C35.2771 464.189 35.2291 464.045 35.1331 463.96C35.0477 463.864 34.8984 463.816 34.6851 463.816H34.3171V462.648H38.9251C40.4077 462.648 41.5064 463.101 42.2211 464.008C42.9464 464.915 43.3091 466.2 43.3091 467.864C43.3091 469.421 42.9357 470.669 42.1891 471.608C41.4531 472.536 40.3651 473 38.9251 473H34.3171V471.848ZM38.7011 471.848C39.7464 471.848 40.4984 471.517 40.9571 470.856C41.4157 470.195 41.6451 469.197 41.6451 467.864C41.6451 466.499 41.4157 465.48 40.9571 464.808C40.4984 464.136 39.7464 463.8 38.7011 463.8H36.9731V471.848H38.7011ZM48.3799 473.24C47.1639 473.24 46.1879 472.904 45.4519 472.232C44.7266 471.549 44.3639 470.557 44.3639 469.256C44.3639 467.869 44.6999 466.829 45.3719 466.136C46.0546 465.432 47.0199 465.08 48.2679 465.08C49.4733 465.08 50.3853 465.421 51.0039 466.104C51.6226 466.787 51.9319 467.709 51.9319 468.872V469.608H46.0599C46.0599 470.472 46.2679 471.112 46.6839 471.528C47.1106 471.933 47.6813 472.136 48.3959 472.136C48.8013 472.136 49.1426 472.109 49.4199 472.056C49.6973 471.992 49.9479 471.891 50.1719 471.752V471.176H51.6599V472.296C51.2119 472.616 50.7266 472.851 50.2039 473C49.6919 473.16 49.0839 473.24 48.3799 473.24ZM50.2839 468.568C50.2839 467.011 49.6066 466.232 48.2519 466.232C47.5373 466.232 46.9933 466.44 46.6199 466.856C46.2466 467.272 46.0599 467.843 46.0599 468.568H50.2839ZM57.8689 473.24C56.6103 473.24 55.7143 472.797 55.1809 471.912L55.0529 473H53.7409V464.28C53.7409 464.035 53.6983 463.859 53.6129 463.752C53.5383 463.635 53.3783 463.576 53.1329 463.576H52.8289V462.408H55.3889V466.248C55.6663 465.853 56.0343 465.56 56.4929 465.368C56.9516 465.176 57.4689 465.08 58.0449 465.08C59.1223 465.08 59.9383 465.427 60.4929 466.12C61.0583 466.813 61.3409 467.827 61.3409 469.16C61.3409 470.44 61.0263 471.443 60.3969 472.168C59.7783 472.883 58.9356 473.24 57.8689 473.24ZM57.6449 471.992C58.3596 471.992 58.8769 471.768 59.1969 471.32C59.5169 470.872 59.6769 470.141 59.6769 469.128C59.6769 468.104 59.5116 467.379 59.1809 466.952C58.8609 466.525 58.3169 466.312 57.5489 466.312C56.9409 466.312 56.4343 466.52 56.0289 466.936C55.6343 467.352 55.4369 467.939 55.4369 468.696V469.624C55.4369 470.317 55.6396 470.888 56.0449 471.336C56.4609 471.773 56.9943 471.992 57.6449 471.992ZM65.5249 473.24C64.6503 473.24 63.9889 473.011 63.5409 472.552C63.0929 472.093 62.8689 471.437 62.8689 470.584V467.096C62.8689 466.893 62.8209 466.744 62.7249 466.648C62.6396 466.552 62.4956 466.504 62.2929 466.504H61.8289V465.32H64.5809V470.568C64.5809 471.603 65.0823 472.12 66.0849 472.12C66.6289 472.12 67.0663 471.96 67.3969 471.64C67.7276 471.32 67.8929 470.861 67.8929 470.264V467.096C67.8929 466.893 67.8503 466.744 67.7649 466.648C67.6903 466.552 67.5569 466.504 67.3649 466.504H66.9169V465.32H69.5889V471.224C69.5889 471.427 69.6369 471.576 69.7329 471.672C69.8289 471.757 69.9783 471.8 70.1809 471.8H70.5009V473H68.4689L68.3729 471.96C68.0316 472.408 67.6316 472.733 67.1729 472.936C66.7249 473.139 66.1756 473.24 65.5249 473.24ZM75.7952 476.2C74.5259 476.2 73.5019 475.827 72.7232 475.08V473.976H74.1952V474.552C74.3979 474.701 74.6112 474.803 74.8352 474.856C75.0699 474.92 75.3525 474.952 75.6832 474.952C76.7925 474.952 77.3472 474.392 77.3472 473.272V471.992C77.0592 472.387 76.7072 472.675 76.2912 472.856C75.8752 473.037 75.3792 473.128 74.8032 473.128C73.7152 473.128 72.8725 472.781 72.2752 472.088C71.6885 471.395 71.3952 470.387 71.3952 469.064C71.3952 467.795 71.7045 466.813 72.3232 466.12C72.9525 465.427 73.8005 465.08 74.8672 465.08C75.4859 465.08 76.0085 465.192 76.4352 465.416C76.8619 465.629 77.2352 465.976 77.5552 466.456L77.6992 465.304H79.8432V466.408H79.5072C79.3152 466.408 79.1819 466.461 79.1072 466.568C79.0325 466.664 78.9952 466.829 78.9952 467.064V473.016C78.9952 473.976 78.7019 474.744 78.1152 475.32C77.5392 475.907 76.7659 476.2 75.7952 476.2ZM75.2032 471.88C75.8859 471.88 76.4032 471.683 76.7552 471.288C77.1179 470.883 77.2992 470.291 77.2992 469.512V468.776C77.2992 468.019 77.1179 467.421 76.7552 466.984C76.3925 466.536 75.8699 466.312 75.1872 466.312C74.4405 466.312 73.8965 466.531 73.5552 466.968C73.2245 467.395 73.0592 468.093 73.0592 469.064C73.0592 470.077 73.2245 470.803 73.5552 471.24C73.8859 471.667 74.4352 471.88 75.2032 471.88Z" fill="white"/>
<path d="M156.755 471.832H157.187C157.421 471.832 157.581 471.784 157.667 471.688C157.763 471.592 157.811 471.443 157.811 471.24V464.408C157.811 464.205 157.763 464.061 157.667 463.976C157.581 463.88 157.421 463.832 157.187 463.832H156.755V462.648H161.987C163.064 462.648 163.901 462.915 164.499 463.448C165.096 463.971 165.395 464.717 165.395 465.688C165.395 466.488 165.176 467.155 164.739 467.688C164.301 468.211 163.683 468.547 162.883 468.696L164.291 471.32C164.397 471.512 164.52 471.645 164.659 471.72C164.808 471.795 164.995 471.832 165.219 471.832H165.651V473H162.147V471.832H162.915L161.315 468.856H159.507V471.272C159.507 471.475 159.544 471.619 159.619 471.704C159.704 471.789 159.853 471.832 160.067 471.832H160.435V473H156.755V471.832ZM161.731 467.672C162.403 467.672 162.904 467.501 163.235 467.16C163.576 466.819 163.747 466.328 163.747 465.688C163.747 465.027 163.587 464.552 163.267 464.264C162.947 463.976 162.435 463.832 161.731 463.832H159.507V467.672H161.731ZM170.724 473.24C169.508 473.24 168.532 472.904 167.796 472.232C167.07 471.549 166.708 470.557 166.708 469.256C166.708 467.869 167.044 466.829 167.716 466.136C168.398 465.432 169.364 465.08 170.612 465.08C171.817 465.08 172.729 465.421 173.348 466.104C173.966 466.787 174.276 467.709 174.276 468.872V469.608H168.404C168.404 470.472 168.612 471.112 169.028 471.528C169.454 471.933 170.025 472.136 170.74 472.136C171.145 472.136 171.486 472.109 171.764 472.056C172.041 471.992 172.292 471.891 172.516 471.752V471.176H174.004V472.296C173.556 472.616 173.07 472.851 172.548 473C172.036 473.16 171.428 473.24 170.724 473.24ZM172.628 468.568C172.628 467.011 171.95 466.232 170.596 466.232C169.881 466.232 169.337 466.44 168.964 466.856C168.59 467.272 168.404 467.843 168.404 468.568H172.628ZM178.142 473.24C176.852 473.24 175.78 472.931 174.926 472.312V471.064H176.494V471.704C176.932 471.96 177.465 472.088 178.094 472.088C178.574 472.088 178.932 472.013 179.166 471.864C179.412 471.715 179.534 471.469 179.534 471.128C179.534 470.904 179.47 470.723 179.342 470.584C179.225 470.435 179.06 470.312 178.846 470.216C178.633 470.109 178.212 469.928 177.582 469.672C176.953 469.416 176.468 469.197 176.126 469.016C175.796 468.824 175.524 468.584 175.31 468.296C175.108 468.008 175.006 467.645 175.006 467.208C175.006 466.504 175.278 465.976 175.822 465.624C176.366 465.261 177.108 465.08 178.046 465.08C178.644 465.08 179.204 465.16 179.726 465.32C180.249 465.469 180.702 465.688 181.086 465.976V467.176H179.55V466.584C179.166 466.349 178.708 466.232 178.174 466.232C177.694 466.232 177.332 466.307 177.086 466.456C176.852 466.605 176.734 466.856 176.734 467.208C176.734 467.528 176.862 467.779 177.118 467.96C177.374 468.131 177.769 468.312 178.302 468.504C178.452 468.547 178.617 468.605 178.798 468.68C179.353 468.893 179.796 469.091 180.126 469.272C180.457 469.453 180.729 469.693 180.942 469.992C181.156 470.291 181.262 470.669 181.262 471.128C181.262 471.811 181.001 472.333 180.478 472.696C179.966 473.059 179.188 473.24 178.142 473.24ZM185.843 473.24C184.957 473.24 184.291 473.021 183.843 472.584C183.395 472.147 183.171 471.507 183.171 470.664V466.472H181.923V465.32H183.171V463.592L184.867 463.048V465.32H187.171V466.472H184.867V470.776C184.867 471.245 184.952 471.581 185.123 471.784C185.304 471.987 185.576 472.088 185.939 472.088C186.408 472.088 186.765 471.987 187.011 471.784V471.096H188.467V472.312C188.115 472.611 187.731 472.84 187.315 473C186.899 473.16 186.408 473.24 185.843 473.24ZM191.484 473.24C190.63 473.24 189.98 473.053 189.532 472.68C189.094 472.307 188.876 471.779 188.876 471.096C188.876 470.328 189.116 469.768 189.596 469.416C190.086 469.053 190.79 468.84 191.708 468.776L193.948 468.632V467.656C193.948 467.155 193.841 466.792 193.628 466.568C193.414 466.344 193.052 466.232 192.54 466.232C192.188 466.232 191.894 466.264 191.66 466.328C191.436 466.381 191.228 466.472 191.036 466.6V467.176H189.548V465.912C190.444 465.357 191.452 465.08 192.572 465.08C194.62 465.08 195.644 465.987 195.644 467.8V471.304C195.644 471.517 195.681 471.672 195.756 471.768C195.841 471.864 195.974 471.912 196.156 471.912H196.508V473H194.668L194.46 471.992C194.118 472.429 193.718 472.749 193.26 472.952C192.812 473.144 192.22 473.24 191.484 473.24ZM191.868 472.088C192.508 472.088 193.014 471.949 193.388 471.672C193.761 471.395 193.948 470.973 193.948 470.408V469.64L191.836 469.8C191.313 469.832 190.95 469.944 190.748 470.136C190.545 470.317 190.444 470.611 190.444 471.016C190.444 471.368 190.556 471.635 190.78 471.816C191.004 471.997 191.366 472.088 191.868 472.088ZM197.411 471.816H197.811C198.024 471.816 198.173 471.773 198.259 471.688C198.355 471.592 198.403 471.437 198.403 471.224V467.096C198.403 466.893 198.36 466.744 198.275 466.648C198.189 466.552 198.045 466.504 197.843 466.504H197.507V465.32H199.715L199.939 466.2C200.152 465.869 200.424 465.64 200.755 465.512C201.096 465.384 201.496 465.32 201.955 465.32H202.691V466.504H201.795C201.187 466.504 200.755 466.643 200.499 466.92C200.243 467.187 200.115 467.603 200.115 468.168V471.224C200.115 471.437 200.157 471.592 200.243 471.688C200.328 471.773 200.472 471.816 200.675 471.816H201.075V473H197.411V471.816ZM207.108 473.24C206.223 473.24 205.556 473.021 205.108 472.584C204.66 472.147 204.436 471.507 204.436 470.664V466.472H203.188V465.32H204.436V463.592L206.132 463.048V465.32H208.436V466.472H206.132V470.776C206.132 471.245 206.218 471.581 206.388 471.784C206.57 471.987 206.842 472.088 207.204 472.088C207.674 472.088 208.031 471.987 208.276 471.784V471.096H209.732V472.312C209.38 472.611 208.996 472.84 208.58 473C208.164 473.16 207.674 473.24 207.108 473.24Z" fill="white"/>
<path d="M150.411 227.832H150.875C151.088 227.832 151.237 227.784 151.323 227.688C151.419 227.592 151.467 227.437 151.467 227.224V220.408C151.467 220.205 151.419 220.061 151.323 219.976C151.237 219.88 151.088 219.832 150.875 219.832H150.411V218.648H154.139V219.832H153.739C153.536 219.832 153.387 219.88 153.291 219.976C153.205 220.061 153.163 220.205 153.163 220.408V223.224H157.515V220.424C157.515 220.211 157.472 220.061 157.387 219.976C157.301 219.88 157.152 219.832 156.939 219.832H156.523V218.648H160.267V219.832H159.803C159.589 219.832 159.435 219.88 159.339 219.976C159.253 220.061 159.211 220.205 159.211 220.408V227.224C159.211 227.437 159.253 227.592 159.339 227.688C159.435 227.784 159.589 227.832 159.803 227.832H160.267V229H156.523V227.832H156.939C157.141 227.832 157.285 227.784 157.371 227.688C157.467 227.592 157.515 227.437 157.515 227.224V224.392H153.163V227.224C153.163 227.437 153.205 227.592 153.291 227.688C153.387 227.784 153.536 227.832 153.739 227.832H154.139V229H150.411V227.832ZM163.765 229.24C162.912 229.24 162.261 229.053 161.813 228.68C161.376 228.307 161.157 227.779 161.157 227.096C161.157 226.328 161.397 225.768 161.877 225.416C162.368 225.053 163.072 224.84 163.989 224.776L166.229 224.632V223.656C166.229 223.155 166.122 222.792 165.909 222.568C165.696 222.344 165.333 222.232 164.821 222.232C164.469 222.232 164.176 222.264 163.941 222.328C163.717 222.381 163.509 222.472 163.317 222.6V223.176H161.829V221.912C162.725 221.357 163.733 221.08 164.853 221.08C166.901 221.08 167.925 221.987 167.925 223.8V227.304C167.925 227.517 167.962 227.672 168.037 227.768C168.122 227.864 168.256 227.912 168.437 227.912H168.789V229H166.949L166.741 227.992C166.4 228.429 166 228.749 165.541 228.952C165.093 229.144 164.501 229.24 163.765 229.24ZM164.149 228.088C164.789 228.088 165.296 227.949 165.669 227.672C166.042 227.395 166.229 226.973 166.229 226.408V225.64L164.117 225.8C163.594 225.832 163.232 225.944 163.029 226.136C162.826 226.317 162.725 226.611 162.725 227.016C162.725 227.368 162.837 227.635 163.061 227.816C163.285 227.997 163.648 228.088 164.149 228.088ZM169.692 227.816H170.092C170.305 227.816 170.455 227.773 170.54 227.688C170.636 227.592 170.684 227.437 170.684 227.224V223.096C170.684 222.893 170.641 222.744 170.556 222.648C170.471 222.552 170.327 222.504 170.124 222.504H169.788V221.32H171.996L172.22 222.2C172.433 221.869 172.705 221.64 173.036 221.512C173.377 221.384 173.777 221.32 174.236 221.32H174.972V222.504H174.076C173.468 222.504 173.036 222.643 172.78 222.92C172.524 223.187 172.396 223.603 172.396 224.168V227.224C172.396 227.437 172.439 227.592 172.524 227.688C172.609 227.773 172.753 227.816 172.956 227.816H173.356V229H169.692V227.816ZM178.505 229.24C177.449 229.24 176.623 228.899 176.025 228.216C175.439 227.533 175.145 226.557 175.145 225.288C175.145 223.955 175.439 222.92 176.025 222.184C176.612 221.448 177.46 221.08 178.569 221.08C179.22 221.08 179.737 221.16 180.121 221.32C180.516 221.48 180.841 221.747 181.097 222.12V220.28C181.097 220.024 181.055 219.843 180.969 219.736C180.884 219.629 180.719 219.576 180.473 219.576H180.201V218.408H182.745V227.288C182.745 227.523 182.783 227.688 182.857 227.784C182.932 227.869 183.071 227.912 183.273 227.912H183.593V229H181.449L181.305 227.88C180.985 228.36 180.607 228.707 180.169 228.92C179.732 229.133 179.177 229.24 178.505 229.24ZM178.889 227.992C179.572 227.992 180.105 227.773 180.489 227.336C180.873 226.888 181.065 226.291 181.065 225.544V224.728C181.065 223.949 180.879 223.352 180.505 222.936C180.143 222.52 179.625 222.312 178.953 222.312C178.196 222.312 177.647 222.547 177.305 223.016C176.975 223.485 176.809 224.237 176.809 225.272C176.809 226.253 176.969 226.952 177.289 227.368C177.609 227.784 178.143 227.992 178.889 227.992ZM184.87 222.872C184.828 222.701 184.753 222.584 184.646 222.52C184.55 222.456 184.39 222.424 184.166 222.424H183.766V221.32H185.99L187.334 227.08L188.902 222.008H190.15L191.718 227.08L193.094 221.32H195.302V222.424H194.902C194.678 222.424 194.513 222.456 194.406 222.52C194.31 222.584 194.241 222.701 194.198 222.872L192.726 229H191.062L189.542 224.12L188.006 229H186.342L184.87 222.872ZM197.921 229.24C197.068 229.24 196.417 229.053 195.969 228.68C195.532 228.307 195.313 227.779 195.313 227.096C195.313 226.328 195.553 225.768 196.033 225.416C196.524 225.053 197.228 224.84 198.145 224.776L200.385 224.632V223.656C200.385 223.155 200.279 222.792 200.065 222.568C199.852 222.344 199.489 222.232 198.977 222.232C198.625 222.232 198.332 222.264 198.097 222.328C197.873 222.381 197.665 222.472 197.473 222.6V223.176H195.985V221.912C196.881 221.357 197.889 221.08 199.009 221.08C201.057 221.08 202.081 221.987 202.081 223.8V227.304C202.081 227.517 202.119 227.672 202.193 227.768C202.279 227.864 202.412 227.912 202.593 227.912H202.945V229H201.105L200.897 227.992C200.556 228.429 200.156 228.749 199.697 228.952C199.249 229.144 198.657 229.24 197.921 229.24ZM198.305 228.088C198.945 228.088 199.452 227.949 199.825 227.672C200.199 227.395 200.385 226.973 200.385 226.408V225.64L198.273 225.8C197.751 225.832 197.388 225.944 197.185 226.136C196.983 226.317 196.881 226.611 196.881 227.016C196.881 227.368 196.993 227.635 197.217 227.816C197.441 227.997 197.804 228.088 198.305 228.088ZM203.848 227.816H204.248C204.462 227.816 204.611 227.773 204.696 227.688C204.792 227.592 204.84 227.437 204.84 227.224V223.096C204.84 222.893 204.798 222.744 204.712 222.648C204.627 222.552 204.483 222.504 204.28 222.504H203.944V221.32H206.152L206.376 222.2C206.59 221.869 206.862 221.64 207.192 221.512C207.534 221.384 207.934 221.32 208.392 221.32H209.128V222.504H208.232C207.624 222.504 207.192 222.643 206.936 222.92C206.68 223.187 206.552 223.603 206.552 224.168V227.224C206.552 227.437 206.595 227.592 206.68 227.688C206.766 227.773 206.91 227.816 207.112 227.816H207.512V229H203.848V227.816ZM214.036 229.24C212.82 229.24 211.844 228.904 211.108 228.232C210.383 227.549 210.02 226.557 210.02 225.256C210.02 223.869 210.356 222.829 211.028 222.136C211.711 221.432 212.676 221.08 213.924 221.08C215.13 221.08 216.042 221.421 216.66 222.104C217.279 222.787 217.588 223.709 217.588 224.872V225.608H211.716C211.716 226.472 211.924 227.112 212.34 227.528C212.767 227.933 213.338 228.136 214.052 228.136C214.458 228.136 214.799 228.109 215.076 228.056C215.354 227.992 215.604 227.891 215.828 227.752V227.176H217.316V228.296C216.868 228.616 216.383 228.851 215.86 229C215.348 229.16 214.74 229.24 214.036 229.24ZM215.94 224.568C215.94 223.011 215.263 222.232 213.908 222.232C213.194 222.232 212.65 222.44 212.276 222.856C211.903 223.272 211.716 223.843 211.716 224.568H215.94Z" fill="white"/>
<path d="M39.3405 227.832H39.8045C40.0178 227.832 40.1672 227.784 40.2525 227.688C40.3485 227.592 40.3965 227.437 40.3965 227.224V220.408C40.3965 220.205 40.3485 220.061 40.2525 219.976C40.1672 219.88 40.0178 219.832 39.8045 219.832H39.3405V218.648H44.7165C45.6338 218.648 46.3378 218.888 46.8285 219.368C47.3192 219.848 47.5645 220.525 47.5645 221.4C47.5645 221.923 47.4418 222.392 47.1965 222.808C46.9512 223.213 46.5938 223.523 46.1245 223.736C46.6578 223.917 47.0578 224.216 47.3245 224.632C47.6018 225.037 47.7405 225.539 47.7405 226.136C47.7405 226.968 47.4952 227.656 47.0045 228.2C46.5138 228.733 45.8365 229 44.9725 229H39.3405V227.832ZM44.1565 223.192C44.7005 223.192 45.1272 223.043 45.4365 222.744C45.7458 222.445 45.9005 222.024 45.9005 221.48C45.9005 220.915 45.7672 220.499 45.5005 220.232C45.2445 219.955 44.8232 219.816 44.2365 219.816H42.0925V223.192H44.1565ZM44.5085 227.832C44.9992 227.832 45.3832 227.688 45.6605 227.4C45.9378 227.101 46.0765 226.664 46.0765 226.088C46.0765 225.491 45.9272 225.059 45.6285 224.792C45.3298 224.525 44.8712 224.392 44.2525 224.392H42.0925V227.832H44.5085ZM51.2416 229.24C50.3883 229.24 49.7376 229.053 49.2896 228.68C48.8523 228.307 48.6336 227.779 48.6336 227.096C48.6336 226.328 48.8736 225.768 49.3536 225.416C49.8443 225.053 50.5483 224.84 51.4656 224.776L53.7056 224.632V223.656C53.7056 223.155 53.599 222.792 53.3856 222.568C53.1723 222.344 52.8096 222.232 52.2976 222.232C51.9456 222.232 51.6523 222.264 51.4176 222.328C51.1936 222.381 50.9856 222.472 50.7936 222.6V223.176H49.3056V221.912C50.2016 221.357 51.2096 221.08 52.3296 221.08C54.3776 221.08 55.4016 221.987 55.4016 223.8V227.304C55.4016 227.517 55.439 227.672 55.5136 227.768C55.599 227.864 55.7323 227.912 55.9136 227.912H56.2656V229H54.4256L54.2176 227.992C53.8763 228.429 53.4763 228.749 53.0176 228.952C52.5696 229.144 51.9776 229.24 51.2416 229.24ZM51.6256 228.088C52.2656 228.088 52.7723 227.949 53.1456 227.672C53.519 227.395 53.7056 226.973 53.7056 226.408V225.64L51.5936 225.8C51.071 225.832 50.7083 225.944 50.5056 226.136C50.303 226.317 50.2016 226.611 50.2016 227.016C50.2016 227.368 50.3136 227.635 50.5376 227.816C50.7616 227.997 51.1243 228.088 51.6256 228.088ZM60.7181 229.24C59.9501 229.24 59.2515 229.085 58.6221 228.776C58.0035 228.467 57.5128 228.008 57.1501 227.4C56.7875 226.792 56.6061 226.067 56.6061 225.224C56.6061 223.88 56.9635 222.856 57.6781 222.152C58.4035 221.437 59.4008 221.08 60.6701 221.08C61.3635 221.08 61.9448 221.155 62.4141 221.304C62.8835 221.453 63.3368 221.693 63.7741 222.024V223.56H62.2861V222.68C62.0408 222.541 61.8061 222.445 61.5821 222.392C61.3581 222.339 61.0541 222.312 60.6701 222.312C59.9555 222.312 59.3741 222.552 58.9261 223.032C58.4888 223.501 58.2701 224.232 58.2701 225.224C58.2701 226.163 58.5208 226.861 59.0221 227.32C59.5341 227.768 60.1848 227.992 60.9741 227.992C61.4648 227.992 61.8808 227.949 62.2221 227.864C62.5741 227.779 62.9048 227.635 63.2141 227.432L63.8061 228.408C63.3581 228.717 62.8995 228.931 62.4301 229.048C61.9715 229.176 61.4008 229.24 60.7181 229.24ZM64.4499 227.864H64.8819C65.0952 227.864 65.2392 227.827 65.3139 227.752C65.3992 227.667 65.4419 227.523 65.4419 227.32V220.056C65.4419 219.853 65.4045 219.715 65.3299 219.64C65.2552 219.555 65.1165 219.512 64.9139 219.512H64.5459V218.408H67.9859V219.512H67.5379C67.3459 219.512 67.2125 219.555 67.1379 219.64C67.0632 219.715 67.0259 219.853 67.0259 220.056V224.76L69.6179 222.44H68.8339V221.32H72.4819V222.44H71.7459C71.5752 222.44 71.4472 222.461 71.3619 222.504C71.2765 222.547 71.1592 222.632 71.0099 222.76L69.4259 224.152L71.3619 227.432C71.4685 227.603 71.5699 227.72 71.6659 227.784C71.7725 227.837 71.9325 227.864 72.1459 227.864H72.8179V229H70.6739L68.3059 225.08L67.0259 226.216V227.32C67.0259 227.523 67.0632 227.667 67.1379 227.752C67.2232 227.827 67.3725 227.864 67.5859 227.864H68.0819V229H64.4499V227.864Z" fill="white"/>
<circle cx="57" cy="289" r="16" fill="#865353"/>
<ellipse cx="57" cy="263" rx="3" ry="8" fill="#865353"/>
<ellipse cx="57" cy="315" rx="3" ry="8" fill="#865353"/>
<ellipse cx="84" cy="289" rx="3" ry="8" transform="rotate(-90 84 289)" fill="#865353"/>
<ellipse cx="30" cy="289" rx="3" ry="8" transform="rotate(-90 30 289)" fill="#865353"/>
<ellipse cx="75.7782" cy="269.778" rx="3" ry="8" transform="rotate(45 75.7782 269.778)" fill="#865353"/>
<ellipse cx="37.7782" cy="307.778" rx="3" ry="8" transform="rotate(45 37.7782 307.778)" fill="#865353"/>
<ellipse cx="37.7782" cy="269.778" rx="3" ry="8" transform="rotate(-45 37.7782 269.778)" fill="#865353"/>
<ellipse cx="76.7782" cy="307.778" rx="3" ry="8" transform="rotate(-45 76.7782 307.778)" fill="#865353"/>
<rect x="168" y="152" width="31" height="20" stroke="#865353" stroke-width="4" stroke-linejoin="round"/>
<line x1="173.5" y1="150" x2="173.5" y2="135" stroke="#865353" stroke-width="3"/>
<line x1="174" y1="185.5" x2="193" y2="185.5" stroke="#865353" stroke-width="3"/>
<line x1="193.5" y1="150" x2="193.5" y2="135" stroke="#865353" stroke-width="3"/>
<line x1="183.5" y1="202" x2="183.5" y2="184" stroke="#865353" stroke-width="3"/>
<line x1="57" y1="405" x2="57" y2="389" stroke="#865353" stroke-width="4"/>
<line x1="191.723" y1="186.214" x2="199.723" y2="173.214" stroke="#865353" stroke-width="3"/>
<line x1="167.277" y1="173.214" x2="175.277" y2="186.214" stroke="#865353" stroke-width="3"/>
<path d="M175.147 397.803C175.963 397.947 176.741 397.403 176.885 396.587C177.029 395.771 176.484 394.993 175.668 394.849L175.408 396.326L175.147 397.803ZM185.408 435.326L185.448 433.827V433.827L185.408 435.326ZM185.408 394.826L200.223 403.799L200.586 386.482L185.408 394.826ZM175.408 396.326L175.668 394.849C174.018 394.558 172.334 395.281 170.889 396.304C169.399 397.36 167.909 398.91 166.553 400.748C163.84 404.423 161.495 409.473 160.736 414.651C159.976 419.841 160.794 425.329 164.666 429.587C168.523 433.828 175.149 436.557 185.369 436.826L185.408 435.326L185.448 433.827C175.667 433.569 169.981 430.973 166.885 427.568C163.804 424.18 163.028 419.703 163.705 415.087C164.383 410.459 166.507 405.863 168.966 402.53C170.195 400.864 171.467 399.571 172.623 398.752C173.826 397.901 174.673 397.72 175.147 397.803L175.408 396.326ZM185.408 435.326L185.369 436.826C193.476 437.039 199.507 435.095 203.697 431.746C207.892 428.392 210.086 423.753 210.739 418.882C211.39 414.028 210.521 408.91 208.57 404.457C206.622 400.011 203.545 396.118 199.669 393.819L198.903 395.109L198.138 396.399C201.356 398.307 204.064 401.648 205.822 405.661C207.577 409.666 208.336 414.232 207.766 418.483C207.198 422.718 205.32 426.607 201.824 429.402C198.322 432.202 193.042 434.027 185.448 433.827L185.408 435.326Z" fill="#765858"/>
<rect x="29.5" y="398.5" width="54" height="37" rx="1.5" fill="#D9D9D9" stroke="#765858" stroke-width="3" stroke-linejoin="round"/>
<circle cx="54.5" cy="384.5" r="6" fill="#D9D9D9" stroke="#765858" stroke-width="3"/>
<rect x="40" y="407" width="9" height="10" stroke="#765858" stroke-width="2"/>
<rect x="64" y="407" width="9" height="6" stroke="#765858" stroke-width="2"/>
<rect x="53" y="424" width="17" height="5" stroke="#765858" stroke-width="2"/>
<path d="M32 167L47 175.66L47 158.34L32 167ZM83 167V165.5L45.5 165.5V167V168.5L83 168.5V167Z" fill="#765858"/>
<path d="M183.5 273L198.655 301.5H168.345L183.5 273Z" fill="#765858"/>
</svg>
