<svg width="240" height="536" viewBox="0 0 240 536" fill="none" xmlns="http://www.w3.org/2000/svg">
<rect width="240" height="536" fill="#1E1E1E"/>
<rect width="240" height="536" fill="#765858"/>
<circle cx="115.5" cy="518.5" r="3.5" fill="#D9D9D9"/>
<circle cx="100" cy="519" r="6" fill="#D9D9D9"/>
<circle cx="130.5" cy="518.5" r="3.5" fill="#D9D9D9"/>
<circle cx="143.5" cy="518.5" r="3.5" fill="#D9D9D9"/>
<path d="M43.5 429C43.5 429 47.5 440.5 57.5 440.5C67.5 440.5 71.5 429 71.5 429" stroke="#D9D9D9" stroke-width="3"/>
<rect x="15" y="53" width="210" height="210" fill="#D9D9D9"/>
<ellipse cx="57.5" cy="416.5" rx="12.5" ry="20.5" fill="#D9D9D9"/>
<ellipse cx="45" cy="412" rx="3" ry="7" transform="rotate(-90 45 412)" fill="#765858"/>
<ellipse cx="70" cy="421" rx="3" ry="7" transform="rotate(-90 70 421)" fill="#765858"/>
<ellipse cx="70" cy="412" rx="3" ry="7" transform="rotate(-90 70 412)" fill="#765858"/>
<ellipse cx="45" cy="421" rx="3" ry="7" transform="rotate(-90 45 421)" fill="#765858"/>
<line x1="57" y1="452" x2="57" y2="439" stroke="#D9D9D9" stroke-width="4"/>
<line x1="50" y1="452.5" x2="65" y2="452.5" stroke="#D9D9D9" stroke-width="3"/>
<path d="M160.5 451.826L147.5 447.9V426.441L160.5 422.189V451.826Z" fill="#D9D9D9" stroke="#D9D9D9"/>
<path d="M198.5 451.826L211.5 447.9V426.441L198.5 422.189V451.826Z" fill="#D9D9D9" stroke="#D9D9D9"/>
<path d="M158.505 424.5C158.505 424.5 152.652 401 179.5 401C206.348 401 200.246 426.08 200.246 426.08" stroke="#D9D9D9" stroke-width="5"/>
</svg>
