<svg width="96" height="102" viewBox="0 0 96 102" fill="none" xmlns="http://www.w3.org/2000/svg">
<rect width="96" height="102" fill="#1E1E1E"/>
<rect width="96" height="102" fill="#765858"/>
<path d="M78.3335 93.3753C78.1505 93.3751 77.9689 93.3433 77.7969 93.2815V51.5123C77.9689 51.4504 78.1505 51.4187 78.3335 51.4185C80.9689 51.4185 83.407 55.3244 85.0246 56.8867L84.6616 47.4189C84.6616 37.4199 81.7264 29.366 77.0237 23.2573C76.171 23.3213 75.3146 23.1984 74.5154 22.8973C73.7161 22.5962 72.9938 22.1243 72.3999 21.5152L71.8634 20.9684C65.0539 14.2972 55.6565 11.2897 46.3774 11.4616C37.0983 11.6334 27.8507 15.0003 21.4832 21.0309L20.9624 21.5309C20.3044 22.1895 19.4942 22.6795 18.602 22.9586C17.7097 23.2376 16.7623 23.2972 15.8415 23.1323C11.1073 29.2567 8.14837 37.3574 8.14837 47.458L7.78542 58.3084C9.56076 56.1915 12.7879 51.5435 15.6758 51.4185V93.3753C9.51341 93.2503 5.0869 83.6341 3.57983 78.908H1.21271V47.458C1.20823 37.1679 4.7831 27.1902 11.3361 19.203C11.0232 18.2073 10.99 17.146 11.2402 16.1331C11.4905 15.1202 12.0146 14.1939 12.7564 13.4535L13.5454 12.7114C22.0118 4.69661 34.0526 0.243925 46.188 0.00957353C58.3234 -0.224778 70.8455 3.83731 80.0142 12.8677L80.7322 13.5942C81.4449 14.3265 81.9478 15.2335 82.189 16.2221C82.4303 17.2106 82.4014 18.2449 82.1051 19.2186C88.645 27.1999 92.2138 37.165 92.2127 47.4423V78.908H90.4689C88.9776 83.7044 84.5196 93.4143 78.3256 93.4143L78.3335 93.3753ZM73.9543 96H66.853C66.1261 96 65.4289 95.7147 64.9141 95.2065C64.3994 94.6984 64.1092 94.009 64.1071 93.2893V51.2935C64.1092 50.5732 64.3991 49.8829 64.9136 49.3735C65.4281 48.8642 66.1254 48.5771 66.853 48.575H73.9543V96ZM19.5106 48.575H27.251C27.978 48.5791 28.674 48.8669 29.1881 49.3758C29.7021 49.8847 29.9928 50.5738 29.9969 51.2935V93.2893C29.9927 94.0083 29.7019 94.6966 29.1876 95.2043C28.6733 95.712 27.9773 95.998 27.251 96H19.4711V48.575H19.5106Z" fill="#DA3E44"/>
<line x1="4.09488" y1="96.3444" x2="91.5783" y2="5.13821" stroke="#765858" stroke-width="8" stroke-linecap="round"/>
<line x1="4.15056" y1="96.1723" x2="90.385" y2="6.06215" stroke="#DA3E44" stroke-width="4" stroke-linecap="round"/>
</svg>
