<svg width="65" height="98" viewBox="0 0 65 98" fill="none" xmlns="http://www.w3.org/2000/svg">
<rect width="65" height="98" fill="#1E1E1E"/>
<rect width="65" height="98" fill="#765858"/>
<path d="M52.3292 54.5084C52.8688 53.236 54.3038 52.6551 55.5362 53.2107C56.7701 53.767 57.3343 55.2523 56.7962 56.528L54.5619 55.5207C56.6459 56.4602 56.7856 56.5243 56.7946 56.5296V56.5329L56.7835 56.5559C56.7778 56.569 56.7703 56.5861 56.7613 56.6067C56.743 56.6483 56.7187 56.7056 56.6867 56.7757C56.6223 56.9166 56.5289 57.1137 56.4074 57.3581C56.1646 57.8466 55.8046 58.528 55.3204 59.3383C54.3545 60.9547 52.8804 63.1081 50.8327 65.2656C46.7248 69.5939 40.2422 74 31 74C21.7578 74 15.2752 69.5939 11.1673 65.2656C9.11965 63.1081 7.64554 60.9547 6.6796 59.3383C6.19545 58.528 5.83543 57.8466 5.59259 57.3581C5.47109 57.1137 5.37768 56.9166 5.3133 56.7757C5.28126 56.7056 5.25695 56.6483 5.23872 56.6067C5.22966 56.5861 5.22218 56.569 5.2165 56.5559L5.20539 56.5329V56.5296C5.21437 56.5243 5.35417 56.4602 7.43812 55.5207L5.2038 56.528C4.66571 55.2523 5.22986 53.767 6.46378 53.2107C7.69619 52.6551 9.1312 53.236 9.67085 54.5084L9.6772 54.5248C9.68539 54.5435 9.70047 54.577 9.72163 54.6233C9.76407 54.7161 9.8325 54.8628 9.92792 55.0547C10.119 55.439 10.4163 56.0045 10.8261 56.6904C11.6482 58.0662 12.9085 59.903 14.6473 61.7351C18.1128 65.3865 23.4123 68.9602 31 68.9602C38.5877 68.9602 43.8872 65.3865 47.3527 61.7351C49.0915 59.903 50.3518 58.0662 51.1739 56.6904C51.5837 56.0045 51.881 55.439 52.0721 55.0547C52.1675 54.8628 52.2359 54.7161 52.2784 54.6233C52.2995 54.577 52.3146 54.5435 52.3228 54.5248C52.3265 54.5164 52.3282 54.5107 52.3292 54.5084Z" fill="#DA3E44"/>
<path d="M28 73H34V94H28L28 73Z" fill="#DA3E44"/>
<path d="M41.4688 93C42.8667 93 44 93.8954 44 95C44 96.1046 42.8667 97 41.4688 97H19.5312C18.1333 97 17 96.1046 17 95C17 93.8954 18.1333 93 19.5312 93H41.4688Z" fill="#DA3E44"/>
<path d="M30.1739 1C20.1367 1 12 8.95556 12 18.7692V46.2308C12 56.0444 20.1367 64 30.1739 64H31.8261C41.8633 64 50 56.0444 50 46.2308V18.7692C50 8.95556 41.8633 1 31.8261 1H30.1739Z" fill="#DA3E44"/>
<path d="M11.5 18C17.8513 18 23 20.2386 23 23C23 25.7614 17.8513 28 11.5 28C5.14873 28 0 25.7614 0 23C0 20.2386 5.14873 18 11.5 18Z" fill="#765858"/>
<path d="M49.5 34C55.8513 34 61 36.2386 61 39C61 41.7614 55.8513 44 49.5 44C43.1487 44 38 41.7614 38 39C38 36.2386 43.1487 34 49.5 34Z" fill="#765858"/>
<path d="M49.5 18C55.8513 18 61 20.2386 61 23C61 25.7614 55.8513 28 49.5 28C43.1487 28 38 25.7614 38 23C38 20.2386 43.1487 18 49.5 18Z" fill="#765858"/>
<path d="M11.5 34C17.8513 34 23 36.2386 23 39C23 41.7614 17.8513 44 11.5 44C5.14873 44 0 41.7614 0 39C0 36.2386 5.14873 34 11.5 34Z" fill="#765858"/>
<line x1="4.89859" y1="71.5713" x2="60.3441" y2="14.1014" stroke="#765858" stroke-width="8" stroke-linecap="round"/>
<line x1="4.94907" y1="71.2629" x2="59.172" y2="15.0509" stroke="#DA3E44" stroke-width="4" stroke-linecap="round"/>
</svg>
